<?xml version="1.0" encoding="UTF-8"?>
<svg width="253px" height="81px" viewBox="0 0 253 81" version="1.1" xmlns="http://www.w3.org/2000/svg" xmlns:xlink="http://www.w3.org/1999/xlink">
    <!-- Generator: Sketch 46.2 (44496) - http://www.bohemiancoding.com/sketch -->
    <title>Accel</title>
    <desc>Created with Sketch.</desc>
    <defs></defs>
    <g id="Page-1" stroke="none" stroke-width="1" fill="none" fill-rule="evenodd">
        <g id="Team-with-Grey-Icons" transform="translate(-1530.000000, -9455.000000)" fill="#313131">
            <g id="Accel" transform="translate(1530.000000, 9455.000000)">
                <path d="M251.249183,36.3240667 C251.721183,36.48275 252.10775,36.5600667 252.57975,36.6414417 C251.094558,41.015625 249.450683,45.3898167 247.9655,49.845375 C234.143058,49.845375 220.231125,49.845375 206.408683,49.845375 C206.408683,49.373375 206.408683,48.98275 206.408683,48.5107417 C207.108558,48.5107417 207.735183,48.5107417 208.435058,48.5107417 C210.705558,48.5107417 212.341308,47.810875 213.277175,46.484375 C213.8265,45.6990667 214.139808,43.904625 214.139808,41.17025 C214.139808,30.7006917 214.139808,20.231125 214.139808,9.765625 C214.139808,6.71794167 213.749183,4.76481667 213.04525,4.060875 C212.032058,2.970375 210.4655,2.42106667 208.435058,2.42106667 C207.735183,2.42106667 207.108558,2.42106667 206.408683,2.42106667 C206.408683,2.02636667 206.408683,1.5625 206.408683,1.0905 C214.530433,1.0905 222.65625,1.0905 230.70475,1.0905 C230.70475,1.5625 230.70475,2.02636667 230.70475,2.42106667 C227.893058,2.42106667 225.858558,2.653 224.764,3.20231667 C223.592125,3.67025 222.810875,4.296875 222.342933,5.07406667 C221.952308,5.859375 221.716308,7.65381667 221.716308,10.5428167 C221.716308,20.7804417 221.716308,31.014 221.716308,41.17025 C221.716308,43.123375 221.952308,44.53125 222.342933,45.3125 C222.65625,45.7804417 223.124183,46.1710667 223.828125,46.4070667 C224.450683,46.639 226.5625,46.7163167 229.99675,46.7163167 C231.327308,46.7163167 232.657875,46.7163167 233.903,46.7163167 C238.049308,46.7163167 240.938308,46.484375 242.57405,45.939125 C244.217933,45.3898167 245.780433,44.3725667 247.106933,42.96875 C248.514808,41.560875 249.918625,39.37175 251.249183,36.3240667 L251.249183,36.3240667 Z M174.686683,3.74756667 C174.686683,10.2335667 174.686683,16.64225 174.686683,23.046875 C178.592933,23.046875 182.5765,23.046875 186.48275,23.046875 C189.530433,23.046875 191.560875,22.574875 192.578125,21.793625 C193.986,20.62175 194.763183,18.7459417 194.921875,15.93425 C195.389808,15.93425 195.85775,15.93425 196.407058,15.93425 C196.407058,21.639 196.407058,27.2664417 196.407058,32.8857417 C195.85775,32.8857417 195.389808,32.8857417 194.921875,32.8857417 C194.53125,30.5460667 194.13655,29.060875 193.827308,28.361 C193.359375,27.498375 192.500808,26.8758167 191.483558,26.407875 C190.389,25.935875 188.749183,25.6225667 186.48275,25.6225667 C182.5765,25.6225667 178.592933,25.6225667 174.686683,25.6225667 C174.686683,31.014 174.686683,36.3240667 174.686683,41.7155 C174.686683,43.904625 174.763933,45.1538167 175,45.62175 C175.158683,46.0896917 175.622558,46.484375 176.094558,46.7163167 C176.639808,47.029625 177.653,47.18425 179.138183,47.18425 C182.108558,47.18425 185.15625,47.18425 188.203933,47.18425 C191.247558,47.18425 193.436683,47.029625 194.8405,46.5576167 C196.171058,46.1710667 197.501625,45.467125 198.74675,44.3725667 C200.390625,42.8100667 202.10775,40.625 203.828933,37.654625 C204.374183,37.654625 204.846183,37.654625 205.391433,37.654625 C203.902175,41.7155 202.266433,45.7804417 200.78125,49.845375 C186.950683,49.845375 173.205558,49.845375 159.375,49.845375 C159.375,49.373375 159.375,48.98275 159.375,48.5107417 C159.997558,48.5107417 160.624183,48.5107417 161.328125,48.5107417 C162.577308,48.5107417 163.749183,48.2015 164.921058,47.6521917 C165.702308,47.265625 166.328933,46.7163167 166.64225,45.939125 C166.874183,45.231125 167.110183,43.595375 167.110183,41.2475667 C167.110183,30.7006917 167.110183,20.157875 167.110183,9.60694167 C167.110183,6.486 166.719558,4.606125 166.015625,3.90625 C165.075683,2.889 163.513183,2.42106667 161.328125,2.42106667 C160.624183,2.42106667 159.997558,2.42106667 159.375,2.42106667 C159.375,2.02636667 159.375,1.5625 159.375,1.0905 C173.205558,1.0905 186.950683,1.0905 200.78125,1.0905 C200.939933,4.68344167 201.171875,8.203125 201.3265,11.7919917 C200.858558,11.7919917 200.313308,11.7919917 199.845375,11.7919917 C199.296058,9.21631667 198.669433,7.49511667 197.969558,6.486 C197.342933,5.54199167 196.248375,4.842125 194.999183,4.296875 C193.904625,3.97949167 192.032875,3.74756667 189.37175,3.74756667 C184.452308,3.74756667 179.606125,3.74756667 174.686683,3.74756667 L174.686683,3.74756667 Z M155.155433,3.70074342e-16 C155.546058,5.54199167 156.018058,11.0148167 156.404625,16.560875 C156.018058,16.560875 155.546058,16.560875 155.155433,16.560875 C153.592933,11.6414417 151.1678,8.12175 148.124183,5.859375 C145.157875,3.67025 141.483558,2.57975 137.264,2.57975 C133.671058,2.57975 130.46875,3.43831667 127.57975,4.99675 C124.686683,6.71794167 122.424308,9.29769167 120.780433,12.8865667 C119.140625,16.4835667 118.282058,20.9350667 118.282058,26.3265 C118.282058,30.7006917 119.140625,34.529625 120.62175,37.736 C122.188308,41.015625 124.609375,43.4366917 127.7303,45.231125 C130.778,46.9482417 134.375,47.810875 138.358558,47.810875 C141.874183,47.810875 144.9178,47.1069417 147.578933,45.6990667 C150.231933,44.3725667 153.202308,41.7155 156.404625,37.654625 C156.79525,37.9679417 157.185875,38.126625 157.653808,38.435875 C155.000808,42.8100667 151.794433,45.85775 148.205558,47.89225 C144.608558,49.9959417 140.393058,50.935875 135.39225,50.935875 C126.481125,50.935875 119.527175,48.0428167 114.762375,41.9515 C111.169433,37.5 109.293625,32.26725 109.293625,26.2491917 C109.293625,21.4070667 110.546875,16.8741917 112.890625,12.80925 C115.234375,8.748375 118.591308,5.623375 122.814933,3.35694167 C127.030433,1.0905 131.63655,3.70074342e-16 136.637375,3.70074342e-16 C140.466308,3.70074342e-16 144.372558,0.858566667 148.046875,2.57975 C149.214675,3.12094167 150,3.35694167 150.467942,3.35694167 C151.1678,3.35694167 151.794433,3.20231667 152.34375,2.73031667 C152.970375,2.02636667 153.515625,1.16781667 153.747558,0 C154.2155,0 154.683425,0 155.155442,0 L155.155433,3.70074342e-16 Z M103.828942,0 C104.219567,5.54199167 104.610192,11.0148167 104.99675,16.560875 C104.610192,16.560875 104.219567,16.560875 103.828942,16.560875 C102.189125,11.6414417 99.845375,8.12175 96.7976917,5.859375 C93.75,3.67025 90.07975,2.57975 85.856125,2.57975 C82.26725,2.57975 79.060875,3.43831667 76.171875,4.99675 C73.3601833,6.71794167 71.0164333,9.29769167 69.4539333,12.8865667 C67.8100667,16.4835667 66.9515,20.9350667 66.9515,26.3265 C66.9515,30.7006917 67.7368167,34.529625 69.29525,37.736 C70.7804417,41.015625 73.2015,43.4366917 76.3265,45.231125 C79.4555667,46.9482417 82.967125,47.810875 87.0320667,47.810875 C90.470375,47.810875 93.5913167,47.1069417 96.248375,45.6990667 C98.9054417,44.3725667 101.875817,41.7155 104.99675,37.654625 C105.46875,37.9679417 105.8553,38.126625 106.245925,38.435875 C103.592942,42.8100667 100.38655,45.85775 96.7976917,47.89225 C93.2006833,49.9959417 88.9851917,50.935875 84.0616917,50.935875 C75.154625,50.935875 68.2006917,48.0428167 63.3585667,41.9515 C59.765625,37.5 57.8898167,32.26725 57.8898167,26.2491917 C57.8898167,21.4070667 59.139,16.8741917 61.48275,12.80925 C63.9038167,8.748375 67.2648167,5.623375 71.484375,3.35694167 C75.6225667,1.0905 80.23275,3.70074342e-16 85.2335667,3.70074342e-16 C89.1398167,3.70074342e-16 92.96875,0.858566667 96.7163083,2.57975 C97.810875,3.12094167 98.592125,3.35694167 99.0600583,3.35694167 C99.764,3.35694167 100.467942,3.20231667 100.939933,2.73031667 C101.639808,2.02636667 102.10775,1.16781667 102.421058,0 C102.893058,0 103.356933,0 103.828933,0 L103.828942,0 Z M36.4868167,33.512375 C29.532875,33.512375 22.5789333,33.512375 15.7023083,33.512375 C14.44905,36.092125 13.199875,38.671875 12.0320583,41.2475667 C11.0961917,43.123375 10.7015,44.53125 10.7015,45.467125 C10.7015,46.1710667 11.0961917,46.875 11.873375,47.42025 C12.5773083,47.9655 14.2985,48.3601917 16.8741833,48.5107417 C16.8741833,48.98275 16.8741833,49.373375 16.8741833,49.845375 C11.24675,49.845375 5.62744167,49.845375 0,49.845375 C2.96059473e-15,49.373375 2.96059473e-15,48.98275 2.96059473e-15,48.5107417 C2.26643333,48.1241917 3.67431667,47.6521917 4.37418333,47.1069417 C5.70069167,45.939125 7.18994167,43.595375 8.82569167,40.07975 C15.0024417,26.717125 21.484375,13.435875 27.7303,0 C28.120925,0 28.5929417,0 29.0649417,0 C35.2335667,13.5945667 41.64225,26.953125 47.7335667,40.5476917 C49.214675,43.8273167 50.699875,45.85775 51.8758083,46.875 C53.120925,47.810875 54.842125,48.3601917 57.027175,48.5107417 C57.027175,48.98275 57.027175,49.373375 57.027175,49.845375 C49.9226833,49.845375 42.887375,49.845375 35.782875,49.845375 C35.782875,49.373375 35.782875,48.98275 35.782875,48.5107417 C37.9679417,48.3601917 39.44905,48.0428167 40.1570583,47.501625 C40.93425,46.9482417 41.251625,46.3256917 41.251625,45.5485 C41.251625,44.4539417 40.7836917,42.8100667 39.689125,40.5476917 C38.5905,38.199875 37.495925,35.856125 36.4868167,33.512375 L36.4868167,33.512375 Z M35.310875,30.859375 C32.3445583,24.2960667 29.2155,17.73275 26.2491833,11.1694417 C23.2055667,17.73275 19.9991833,24.2960667 16.8741833,30.859375 C23.046875,30.859375 29.2155,30.859375 35.310875,30.859375 L35.310875,30.859375 Z" id="path5427"></path>
                <path d="M224.484375,60 C224.484375,62.1850583 224.484375,64.4515 224.484375,66.7179333 C224.248375,66.7179333 224.016433,66.7179333 223.85775,66.7179333 C223.625808,65.3914333 223.3125,64.3741833 222.763175,63.6743083 C222.29525,62.889 221.518058,62.262375 220.578125,61.7944333 C219.564933,61.3265 218.547683,61.0945583 217.530433,61.0945583 C216.435875,61.0945583 215.422683,61.4038083 214.641433,62.0304333 C213.941558,62.6570583 213.546875,63.3569333 213.546875,64.1381833 C213.546875,64.683425 213.782875,65.23275 214.250808,65.778 C214.950675,66.486 216.594558,67.421875 219.174308,68.589675 C221.359375,69.6069333 222.763175,70.39225 223.5485,70.8601833 C224.32975,71.4054333 224.956375,72.028 225.342933,72.736 C225.733558,73.4399333 225.969558,74.217125 225.969558,74.998375 C225.969558,76.4835583 225.265625,77.7368083 223.939125,78.8273083 C222.612625,79.921875 220.891433,80.3898083 218.783683,80.3898083 C218.157058,80.3898083 217.530433,80.3898083 216.985183,80.308475 C216.594558,80.235225 215.894683,80.07655 214.800125,79.7632333 C213.705558,79.449925 212.99755,79.2993583 212.765625,79.2993583 C212.452308,79.2993583 212.220375,79.3726083 212.061683,79.5313 C211.907058,79.6899833 211.82975,79.921925 211.752433,80.3898583 C211.516433,80.3898583 211.2845,80.3898583 211.125808,80.3898583 C211.125808,78.2048 211.125808,75.9343 211.125808,73.671925 C211.2845,73.671925 211.516433,73.671925 211.752433,73.671925 C211.988433,75.0757333 212.379058,76.1703 212.924308,76.8742333 C213.388175,77.578175 214.1735,78.123425 215.109375,78.595425 C216.126625,79.0633583 217.294425,79.2993583 218.470375,79.2993583 C219.874183,79.2993583 220.96875,78.9819833 221.754058,78.35535 C222.612625,77.6554833 223.00325,76.95155 223.00325,76.0929833 C223.00325,75.62505 222.844558,75.1571083 222.53125,74.6078 C222.217933,74.1398583 221.754058,73.671925 221.127433,73.2813 C220.6595,72.9679833 219.483558,72.345425 217.530433,71.4054833 C215.577308,70.4696083 214.1735,69.765675 213.388175,69.13905 C212.611,68.589725 211.907058,68.0444833 211.516433,67.3446083 C211.125808,66.6366 210.893875,65.9367333 210.893875,65.0741 C210.893875,63.7476083 211.516433,62.498425 212.765625,61.4852333 C214.014808,60.4679833 215.577308,60.00005 217.530433,60.00005 C218.706375,60.00005 220.032875,60.2319833 221.359375,60.7039833 C221.986,61.0173 222.453933,61.0946083 222.689933,61.0946083 C223.00325,61.0946083 223.235183,61.017275 223.389808,60.8586083 C223.625808,60.7039833 223.707183,60.390675 223.85775,60.00005 C224.016433,60.00005 224.248375,60.00005 224.484375,60.00005 L224.484375,60 Z M204.485183,79.9218917 C202.45475,79.9218917 200.42025,79.9218917 198.389808,79.9218917 C195.891433,76.8742083 193.234375,73.9038333 190.736,70.8602083 C190.109375,70.8602083 189.641433,70.8602083 189.328125,70.8602083 C189.1735,70.8602083 189.014808,70.8602083 188.860183,70.8602083 C188.7015,70.8602083 188.550933,70.8602083 188.314933,70.8602083 C188.314933,72.736025 188.314933,74.607775 188.314933,76.4835833 C188.314933,77.7368333 188.469558,78.514025 188.782875,78.8273333 C189.250808,79.2179583 189.877433,79.4499 190.736,79.4499 C191.04525,79.4499 191.28125,79.4499 191.594558,79.4499 C191.594558,79.6085833 191.594558,79.7632083 191.594558,79.9219 C188.39225,79.9219 185.108558,79.9219 181.90625,79.9219 C181.90625,79.7632083 181.90625,79.6085833 181.90625,79.4499 C182.138175,79.4499 182.455558,79.4499 182.691558,79.4499 C183.700675,79.4499 184.327308,79.14065 184.79525,78.5954 C185.035308,78.2820833 185.108558,77.57815 185.108558,76.4835833 C185.108558,72.264025 185.108558,68.121775 185.108558,63.906275 C185.108558,62.6570833 184.953933,61.871775 184.644683,61.562525 C184.25,61.167825 183.550125,60.9359 182.691558,60.9359 C182.455558,60.9359 182.138175,60.9359 181.90625,60.9359 C181.90625,60.7772 181.90625,60.62665 181.90625,60.39065 C184.644683,60.39065 187.375,60.39065 190.109375,60.39065 C192.530433,60.39065 194.328933,60.545275 195.500808,60.8585833 C196.595375,61.167825 197.612625,61.7212083 198.389808,62.4984 C199.175125,63.3569583 199.56575,64.2969 199.56575,65.468775 C199.56575,66.636575 199.09375,67.6538333 198.235183,68.5897 C197.299308,69.4523333 195.891433,70.0749 194.015625,70.4695833 C195.500808,72.3454 197.140625,74.1398333 198.707183,76.01565 C199.7163,77.3462083 200.660308,78.204775 201.4375,78.5954 C202.222808,79.0633333 203.231925,79.2993333 204.485183,79.4499 C204.485183,79.6085833 204.485183,79.7632083 204.485183,79.9219 L204.485183,79.9218917 Z M188.314933,69.9243333 C188.550933,69.9243333 188.7015,69.9243333 188.860183,69.9243333 C189.014808,69.9243333 189.1735,69.9243333 189.250808,69.9243333 C191.439933,69.9243333 193.07975,69.5337083 194.174308,68.7484 C195.268875,67.8898333 195.81005,66.87665 195.81005,65.6274583 C195.81005,64.3742083 195.346183,63.4383333 194.483558,62.6570833 C193.625,61.871775 192.375808,61.4852083 190.967933,61.4852083 C190.345375,61.4852083 189.4095,61.5624583 188.314933,61.7944583 C188.314933,64.5329 188.314933,67.1859 188.314933,69.9243333 L188.314933,69.9243333 Z M163.310875,61.4852083 C163.310875,64.0649583 163.310875,66.636575 163.310875,69.2163333 C164.95475,69.2163333 166.594558,69.2163333 168.31575,69.2163333 C169.560875,69.2163333 170.419425,69.0617083 170.891433,68.6710833 C171.436683,68.2804583 171.831375,67.4992083 171.831375,66.40465 C172.063308,66.40465 172.299308,66.40465 172.453933,66.40465 C172.453933,68.6710833 172.453933,70.93345 172.453933,73.2039583 C172.299308,73.2039583 172.063308,73.2039583 171.831375,73.2039583 C171.672683,72.1867083 171.514,71.6374 171.363433,71.32815 C171.20475,71.0148333 170.814125,70.7829 170.419425,70.542825 C169.955558,70.392275 169.251625,70.2335833 168.31575,70.2335833 C166.594558,70.2335833 164.95475,70.2335833 163.310875,70.2335833 C163.310875,72.4227083 163.310875,74.5304583 163.310875,76.7195833 C163.310875,77.57815 163.310875,78.1234 163.469558,78.2820833 C163.550892,78.4367083 163.7015,78.5954 163.9375,78.74595 C164.096183,78.8272833 164.56005,78.90465 165.186683,78.90465 C166.439933,78.90465 167.766433,78.90465 169.019683,78.90465 C170.346183,78.90465 171.20475,78.8273167 171.831375,78.6727083 C172.37255,78.514025 172.999183,78.204775 173.467125,77.7368333 C174.175125,77.187525 174.952308,76.25165 175.65625,75.0757083 C175.814933,75.0757083 176.046875,75.0757083 176.2788,75.0757083 C175.65625,76.7195833 174.952308,78.355325 174.325675,79.9219 C168.4663,79.9219 162.688308,79.9219 156.828933,79.9219 C156.828933,79.7632083 156.828933,79.6085833 156.828933,79.4499 C157.14225,79.4499 157.374183,79.4499 157.610183,79.4499 C158.1595,79.4499 158.700675,79.2993333 159.172683,79.14065 C159.486,78.90465 159.79525,78.74595 159.876625,78.4367083 C160.03125,78.1234 160.112625,77.496775 160.112625,76.4835833 C160.112625,72.264025 160.112625,68.0444583 160.112625,63.8249 C160.112625,62.579775 159.953933,61.7944583 159.644683,61.4852083 C159.254058,61.0945833 158.550125,60.9359 157.610183,60.9359 C157.374183,60.9359 157.14225,60.9359 156.828933,60.9359 C156.828933,60.7772 156.828933,60.62665 156.828933,60.39065 C162.688308,60.39065 168.4663,60.39065 174.325675,60.39065 C174.407008,61.871775 174.484375,63.27965 174.561683,64.68345 C174.407058,64.68345 174.175125,64.68345 173.93505,64.68345 C173.703125,63.6743333 173.467125,62.9704 173.157875,62.579775 C172.925933,62.1850833 172.453933,61.871775 171.908683,61.7212083 C171.436683,61.562525 170.655433,61.4852083 169.560875,61.4852083 C167.457183,61.4852083 165.345375,61.4852083 163.310875,61.4852083 L163.310875,61.4852083 Z M125.969558,60.39065 C128.004058,60.39065 130.030433,60.39065 132.14225,60.39065 C136.675125,65.3100833 141.439933,70.156275 145.972808,75.0757083 C145.972808,71.32815 145.972808,67.5805833 145.972808,63.8249 C145.972808,62.579775 145.814125,61.871775 145.500808,61.562525 C145.110183,61.167825 144.487625,60.9359 143.547683,60.9359 C143.311683,60.9359 143.075675,60.9359 142.766433,60.9359 C142.766433,60.7772 142.766433,60.62665 142.766433,60.39065 C145.4235,60.39065 148.0765,60.39065 150.65625,60.39065 C150.65625,60.62665 150.65625,60.7772 150.65625,60.9359 C150.424308,60.9359 150.188308,60.9359 149.879058,60.9359 C148.93505,60.9359 148.235183,61.167825 147.844558,61.7212083 C147.608558,62.0304583 147.453933,62.730325 147.453933,63.8249 C147.453933,69.2977083 147.453933,74.7664583 147.453933,80.30845 C147.299308,80.30845 147.063308,80.30845 146.831375,80.30845 C141.907875,74.9984 136.825675,69.8429583 131.910308,64.5329 C131.910308,68.5897 131.910308,72.5773333 131.910308,76.5609 C131.910308,77.7368333 132.060875,78.514025 132.374183,78.8273333 C132.768875,79.2179583 133.391433,79.4499 134.327308,79.4499 C134.563308,79.4499 134.87255,79.4499 135.112625,79.4499 C135.112625,79.6085833 135.112625,79.7632083 135.112625,79.9219 C132.4515,79.9219 129.875808,79.9219 127.21875,79.9219 C127.21875,79.7632083 127.21875,79.6085833 127.21875,79.4499 C127.450675,79.4499 127.768058,79.4499 128.004058,79.4499 C128.939933,79.4499 129.639808,79.2179583 130.030433,78.6727083 C130.266433,78.355325 130.421058,77.6554583 130.421058,76.5609 C130.421058,72.028025 130.421058,67.4992083 130.421058,62.9704 C129.7985,62.343775 129.25325,61.871775 128.939933,61.6398333 C128.54525,61.4852083 128.077308,61.2492083 127.450675,61.0945833 C127.141433,61.01725 126.592125,60.9359 125.969558,60.9359 C125.969558,60.7772 125.969558,60.62665 125.969558,60.39065 L125.969558,60.39065 Z M121.127433,60.39065 C121.200683,61.95315 121.282058,63.4383333 121.359375,65.0008333 C121.127433,65.0008333 120.96875,65.0008333 120.73275,65.0008333 C120.582183,64.215525 120.4235,63.5929583 120.191558,63.27965 C119.874183,62.730325 119.40625,62.343775 118.861,62.0304583 C118.238433,61.7944583 117.5345,61.6398333 116.594558,61.6398333 C115.5,61.6398333 114.405433,61.6398333 113.388175,61.6398333 C113.388175,66.636575 113.388175,71.6374 113.388175,76.5609 C113.388175,77.7368333 113.546875,78.514025 113.7788,78.8273333 C114.250808,79.2179583 114.873375,79.4499 115.813308,79.4499 C116.049308,79.4499 116.285308,79.4499 116.594558,79.4499 C116.594558,79.6085833 116.594558,79.7632083 116.594558,79.9219 C113.388175,79.9219 110.108558,79.9219 106.910308,79.9219 C106.910308,79.7632083 106.910308,79.6085833 106.910308,79.4499 C107.219558,79.4499 107.455558,79.4499 107.768875,79.4499 C108.70475,79.4499 109.408683,79.2179583 109.799308,78.6727083 C110.03125,78.355325 110.189933,77.6554583 110.189933,76.5609 C110.189933,71.6374 110.189933,66.636575 110.189933,61.6398333 C109.25,61.6398333 108.314125,61.6398333 107.455558,61.6398333 C106.361,61.6398333 105.575675,61.7211667 105.189125,61.871775 C104.566558,62.0304583 104.094558,62.343775 103.703933,62.889025 C103.236,63.4383333 103.004058,64.1382083 102.922683,65.0008333 C102.686683,65.0008333 102.532058,65.0008333 102.296058,65.0008333 C102.377392,63.4383333 102.45475,61.95315 102.532058,60.39065 C108.70475,60.39065 114.95475,60.39065 121.127433,60.39065 L121.127433,60.39065 Z M99.484375,79.9219 C97.4539333,79.9219 95.4235,79.9219 93.389,79.9219 C90.8946833,76.8742083 88.237625,73.9038333 85.7351833,70.8602083 C85.1085583,70.8602083 84.640625,70.8602083 84.331375,70.8602083 C84.1726833,70.8602083 84.0180583,70.8602083 83.859375,70.8602083 C83.70475,70.8602083 83.4728083,70.8602083 83.314125,70.8602083 C83.314125,72.736025 83.314125,74.607775 83.314125,76.4835833 C83.314125,77.7368333 83.4728083,78.514025 83.7820583,78.8273333 C84.1726833,79.2179583 84.876625,79.4499 85.7351833,79.4499 C85.9711833,79.4499 86.2845,79.4499 86.59375,79.4499 C86.59375,79.6085833 86.59375,79.7632083 86.59375,79.9219 C83.314125,79.9219 80.1118083,79.9219 76.828125,79.9219 C76.828125,79.7632083 76.828125,79.6085833 76.828125,79.4499 C77.1414417,79.4499 77.45475,79.4499 77.6866917,79.4499 C78.7039417,79.4499 79.3265,79.14065 79.7985,78.5954 C80.0345,78.2820833 80.1118083,77.57815 80.1118083,76.4835833 C80.1118083,72.264025 80.1118083,68.121775 80.1118083,63.906275 C80.1118083,62.6570833 79.953125,61.871775 79.6398167,61.562525 C79.2491917,61.167825 78.5493083,60.9359 77.6866917,60.9359 C77.45475,60.9359 77.1414417,60.9359 76.828125,60.9359 C76.828125,60.7772 76.828125,60.62665 76.828125,60.39065 C79.6398167,60.39065 82.37825,60.39065 85.1085583,60.39065 C87.529625,60.39065 89.3321833,60.545275 90.5,60.8585833 C91.5945583,61.167825 92.6118083,61.7212083 93.389,62.4984 C94.1743083,63.3569583 94.5649333,64.2969 94.5649333,65.468775 C94.5649333,66.636575 94.097,67.6538333 93.2384333,68.5897 C92.294425,69.4523333 90.8946833,70.0749 89.0148083,70.4695833 C90.5,72.3454 92.143875,74.1398333 93.706375,76.01565 C94.7195583,77.3462083 95.6595,78.204775 96.4366833,78.5954 C97.2179333,79.0633333 98.2351833,79.2993333 99.484375,79.4499 C99.484375,79.6085833 99.484375,79.7632083 99.484375,79.9219 L99.484375,79.9219 Z M83.314125,69.9243333 C83.5460583,69.9243333 83.70475,69.9243333 83.859375,69.9243333 C84.0180583,69.9243333 84.1726833,69.9243333 84.25,69.9243333 C86.43505,69.9243333 88.0789333,69.5337083 89.1735,68.7484 C90.2680583,67.8898333 90.8133083,66.87665 90.8133083,65.6274583 C90.8133083,64.3742083 90.3413,63.4383333 89.48275,62.6570833 C88.6241833,61.871775 87.3790583,61.4852083 85.9711833,61.4852083 C85.26725,61.4852083 84.4086833,61.5624583 83.314125,61.7944583 C83.314125,64.5329 83.314125,67.1859 83.314125,69.9243333 L83.314125,69.9243333 Z M62.220375,73.4399583 C59.3273167,73.4399583 56.361,73.4399583 53.4679417,73.4399583 C52.9226917,74.449075 52.373375,75.4663333 51.9054417,76.4835833 C51.5148167,77.2648333 51.3601917,77.8100833 51.3601917,78.204775 C51.3601917,78.514025 51.5148167,78.74595 51.8321917,78.9819583 C52.1414417,79.2179583 52.8413,79.3725833 53.935875,79.4499 C53.935875,79.6085833 53.935875,79.7632083 53.935875,79.9219 C51.5961833,79.9219 49.175125,79.9219 46.831375,79.9219 C46.831375,79.7632083 46.831375,79.6085833 46.831375,79.4499 C47.76725,79.2993333 48.3898167,79.14065 48.6258167,78.90465 C49.2524333,78.4367083 49.8790667,77.496775 50.5789417,76.01565 C53.1586833,70.701525 55.889,65.3100833 58.550125,60.000025 C58.700675,60.000025 58.94075,60.000025 59.0913,60.000025 C61.6710667,65.3914583 64.4095,70.7829 66.9851917,76.25165 C67.60775,77.57815 68.234375,78.355325 68.7836833,78.74595 C69.251625,79.14065 70.032875,79.3725833 70.8914417,79.4499 C70.8914417,79.6085833 70.8914417,79.7632083 70.8914417,79.9219 C67.9210667,79.9219 64.950675,79.9219 61.9884417,79.9219 C61.9884417,79.7632083 61.9884417,79.6085833 61.9884417,79.4499 C62.847,79.37265 63.4695667,79.2993333 63.782875,79.0633333 C64.092125,78.8273333 64.2508167,78.514025 64.2508167,78.204775 C64.2508167,77.8100833 64.0148167,77.1102083 63.6241917,76.25165 C63.15625,75.3117083 62.6883167,74.3758333 62.220375,73.4399583 Z M61.748375,72.3454 C60.50325,69.684275 59.1726917,67.1085833 57.9235,64.451525 C56.597,67.1085833 55.2664417,69.684275 53.935875,72.3454 C56.597,72.3454 59.1726917,72.3454 61.748375,72.3454 L61.748375,72.3454 Z M34.486,70.7829 C34.486,72.736025 34.486,74.607775 34.486,76.4835833 C34.486,77.7368333 34.6446917,78.514025 34.9539417,78.8273333 C35.3445667,79.2179583 35.9711833,79.4499 36.82975,79.4499 C37.1430583,79.4499 37.456375,79.4499 37.6883167,79.4499 C37.6883167,79.6085833 37.6883167,79.7632083 37.6883167,79.9219 C34.486,79.9219 31.206375,79.9219 28,79.9219 C28,79.7632083 28,79.6085833 28,79.4499 C28.3133167,79.4499 28.54525,79.4499 28.8585667,79.4499 C29.794425,79.4499 30.498375,79.14065 30.889,78.5954 C31.125,78.2820833 31.206375,77.57815 31.206375,76.4835833 C31.206375,72.264025 31.206375,68.121775 31.206375,63.906275 C31.206375,62.6570833 31.1250417,61.871775 30.8116917,61.562525 C30.3478167,61.167825 29.7211917,60.9359 28.8585667,60.9359 C28.54525,60.9359 28.3133167,60.9359 28,60.9359 C28,60.7772 28,60.62665 28,60.39065 C30.7384417,60.39065 33.550125,60.39065 36.2804417,60.39065 C38.310875,60.39065 39.95475,60.62665 41.12255,60.9359 C42.2985,61.326525 43.31575,61.95315 44.0929417,62.8117083 C44.87825,63.6743333 45.268875,64.68345 45.268875,65.778025 C45.268875,67.4219 44.7195667,68.6710833 43.4663,69.684275 C42.2985,70.701525 40.5040667,71.2508333 38.310875,71.2508333 C37.6883167,71.2508333 37.1430583,71.1695 36.5164417,71.09215 C35.8898167,71.0148167 35.1899333,70.93345 34.486,70.7829 L34.486,70.7829 Z M34.486,69.9975833 C35.03125,70.0749167 35.5805583,70.156275 36.0485,70.2335833 C36.5164417,70.2335833 36.9070667,70.3109167 37.2163,70.3109167 C38.39225,70.3109167 39.4095,69.9243583 40.1866917,69.1390417 C41.0493083,68.3577917 41.513175,67.3446083 41.513175,66.0913583 C41.513175,65.2327917 41.28125,64.4515417 40.890625,63.7476083 C40.5040667,63.0477333 39.8774333,62.4984167 39.169425,62.1118583 C38.39225,61.7212333 37.606925,61.5625417 36.6710667,61.5625417 C36.0485,61.5625417 35.3445667,61.639875 34.486,61.8717917 C34.486,64.6102333 34.486,67.2632333 34.486,69.9976083 L34.486,69.9975833 Z" id="path5443"></path>
                <path d="M240.892083,3.7903 C241.400708,3.83105 241.400708,3.83105 241.400708,4.298925 L241.400708,6.82170833 C241.400708,7.2693 241.400708,7.2693 240.892083,7.30999167 L240.892083,7.47275 L242.580725,7.47275 L242.580725,7.30999167 C242.072092,7.26924167 242.072092,7.26924167 242.072092,6.82170833 L242.072092,5.78411667 L242.560375,5.78411667 C242.946933,6.37411667 242.987625,6.43515833 243.109692,6.63860833 C243.394525,7.18791667 243.659008,7.47275 243.842108,7.47275 L244.49315,7.47275 L244.49315,7.39141667 C244.249017,7.18795833 244.004875,6.90313333 243.699692,6.496225 L243.109692,5.682425 C243.659008,5.45863333 243.943842,5.092425 243.943842,4.58379167 C243.943842,4.01413333 243.4759,3.62758333 242.743483,3.62758333 L240.892083,3.62758333 L240.892083,3.79034167 L240.892083,3.7903 Z M242.072092,3.83105 L242.499342,3.83105 C242.987625,3.83105 243.231767,4.11588333 243.231767,4.66519167 C243.231767,5.25520833 242.967275,5.580725 242.519683,5.580725 L242.072092,5.580725 L242.072092,3.83105 L242.072092,3.83105 Z M242.580725,2 C240.5869,2 239,3.60725 239,5.62141667 C239,7.615225 240.5869,9.20214167 242.580725,9.20214167 C244.53385,9.20214167 246.1411,7.615225 246.1411,5.6621 C246.1411,3.60725 244.594883,2 242.580725,2 Z M242.580725,2.44758333 C244.228675,2.44758333 245.571442,3.87173333 245.571442,5.6621 C245.571442,7.33039167 244.187975,8.77489167 242.580725,8.77489167 C240.932767,8.77489167 239.56965,7.33039167 239.56965,5.62141667 C239.56965,3.89208333 240.932767,2.44758333 242.580725,2.44758333 Z" id="path5445" fill-rule="nonzero"></path>
            </g>
        </g>
    </g>
</svg>