<?xml version="1.0" encoding="UTF-8"?>
<svg width="56px" height="65px" viewBox="0 0 56 65" version="1.1" xmlns="http://www.w3.org/2000/svg" xmlns:xlink="http://www.w3.org/1999/xlink">
    <!-- Generator: Sketch 43.2 (39069) - http://www.bohemiancoding.com/sketch -->
    <title>advisory</title>
    <desc>Created with Sketch.</desc>
    <defs>
        <path d="M33.3513978,8.06061687 C32.6050414,7.5885337 32.0064675,7.92008592 32.0145455,8.81220408 L32.1388815,22.5435182 C32.1428837,22.9855031 31.8199647,23.4925955 31.4141398,23.6777293 L23.4270994,27.3213486 C22.2235425,27.8704009 22.1715659,28.8822041 23.2879307,29.5671167 L31.2339027,34.4421331 C32.3605989,35.1333843 34.2484876,35.2351585 35.4454888,34.671867 L42.9042597,31.1618769 C43.3065458,30.9725668 43.6294694,30.4624458 43.6255033,30.0195359 L43.5077152,16.8657454 C43.4958724,15.5432179 42.5849634,13.9010045 41.4591974,13.1889384 L33.3513978,8.06061687 Z" id="path-1"></path>
    </defs>
    <g id="Roadmaps" stroke="none" stroke-width="1" fill="none" fill-rule="evenodd">
        <g id="Heart" transform="translate(-1139.000000, -665.000000)"></g>
        <g id="A4" transform="translate(-94.000000, -360.000000)">
            <g id="Group-3" transform="translate(90.000000, 360.249595)">
                <polygon id="Polygon-Copy-4" fill="#FFE200" points="32 0 59.7128129 16.012966 59.7128129 48.0388979 32 64.0518639 4.28718708 48.0388979 4.28718708 16.012966"></polygon>
                <path d="M32,29.623987 L32,45.2366288" id="Line-Copy-2" stroke="#1F1F1F" stroke-width="0.800000012" stroke-linecap="square"></path>
                <path d="M10.8,45.2366288 L32,45.2366288" id="Line-Copy-3" stroke="#1F1F1F" stroke-width="0.800000012" stroke-linecap="square"></path>
                <path d="M22,51.6418152 L32,45.2366288" id="Line-Copy-4" stroke="#1F1F1F" stroke-width="0.800000012" stroke-linecap="square"></path>
                <ellipse id="Oval-Copy-4" fill="#1F1F1F" cx="10.8" cy="46.0372771" rx="1.2" ry="1.20097245"></ellipse>
                <ellipse id="Oval-Copy-6" fill="#1F1F1F" cx="22" cy="52.4424635" rx="1.2" ry="1.20097245"></ellipse>
                <ellipse id="Oval-Copy-7" fill="#1F1F1F" cx="32" cy="57.2463533" rx="1.2" ry="1.20097245"></ellipse>
                <ellipse id="Oval-Copy-8" fill="#1F1F1F" cx="43.6" cy="51.6418152" rx="1.2" ry="1.20097245"></ellipse>
                <ellipse id="Oval-Copy-9" fill="#1F1F1F" cx="53.2" cy="46.0372771" rx="1.2" ry="1.20097245"></ellipse>
                <path d="M32,56.8460292 L32,44.8363047" id="Line-Copy-5" stroke="#1F1F1F" stroke-width="0.800000012" stroke-linecap="square"></path>
                <path d="M53.2,45.2366288 L32,45.2366288" id="Line-Copy-7" stroke="#1F1F1F" stroke-width="0.800000012" stroke-linecap="square"></path>
                <path d="M43.6,50.8411669 L32,45.2366288" id="Line-Copy-6" stroke="#1F1F1F" stroke-width="0.800000012" stroke-linecap="square"></path>
                <g id="Polygon-Copy-17">
                    <use fill="#FFFFFF" fill-rule="evenodd" xlink:href="#path-1"></use>
                    <path stroke="#1F1F1F" stroke-width="0.800000012" d="M33.137574,8.39866918 L41.2453736,13.5269907 C42.2541296,14.1650461 43.097082,15.6800966 43.1077312,16.8693271 L43.2255193,30.0231176 C43.2280788,30.3089388 42.9956316,30.6768015 42.7339417,30.799949 L35.2751708,34.3099391 C34.1992037,34.8162737 32.4540272,34.7214229 31.4430805,34.1011864 L23.4971085,29.22617 C22.6496867,28.7062594 22.685295,28.0994097 23.5931169,27.6852692 L31.5801573,24.0416499 C32.128991,23.7912767 32.5443047,23.140631 32.5388651,22.5398964 L32.4145292,8.80858226 C32.4093301,8.23441471 32.657932,8.09528746 33.137574,8.39866918 L33.137574,8.39866918 Z"></path>
                </g>
            </g>
        </g>
    </g>
</svg>