<?xml version="1.0" encoding="UTF-8"?>
<svg width="90px" height="110px" viewBox="0 0 90 110" version="1.1" xmlns="http://www.w3.org/2000/svg" xmlns:xlink="http://www.w3.org/1999/xlink">
    <!-- Generator: Sketch 46.2 (44496) - http://www.bohemiancoding.com/sketch -->
    <title>Apple</title>
    <desc>Created with Sketch.</desc>
    <defs></defs>
    <g id="Page-1" stroke="none" stroke-width="1" fill="none" fill-rule="evenodd">
        <g id="Team-with-Grey-Icons" transform="translate(-1271.000000, -9434.000000)" fill-rule="nonzero" fill="#313131">
            <g id="Apple" transform="translate(1271.000000, 9434.000000)">
                <path d="M74.7389574,77.6449122 C74.6149487,91.4787715 86.0375278,98.1201263 86.5542307,98.4439268 C80.1264464,107.84792 70.123078,109.136232 66.5543832,109.287799 C58.0460086,110.14897 49.9441069,104.279225 45.6313599,104.279225 C41.3186129,104.279225 34.6497006,109.16379 27.5949835,109.026002 C18.3081097,108.888215 9.75839884,103.631624 4.97717454,95.3230412 C-4.66105716,78.6025349 2.51766867,53.8214631 11.9009936,40.2493999 C16.4962048,33.6149345 21.9663664,26.1399656 29.1588709,26.4155405 C36.0895794,26.6911154 38.7075408,30.8936324 47.0712386,30.8936324 C55.4349365,30.8936324 57.7911018,26.4155405 65.1145044,26.5464386 C72.5619158,26.6911154 77.2880251,33.3255808 81.8487895,39.9807144 C87.1122698,47.6830325 89.2893115,55.1373332 89.4133202,55.5300274 C89.2479752,55.5989211 74.8905236,61.1035295 74.7389574,77.6449122" id="path188" transform="translate(44.908278, 67.891107) scale(-1, 1) rotate(-180.000000) translate(-44.908278, -67.891107) "></path>
                <path d="M60.9783746,17.5197653 C64.7950136,12.8970181 67.3715982,6.46917828 66.661928,0.0623518973 C61.1638276,0.283049127 54.5091235,3.72755122 50.5614176,8.35029843 C47.0272852,12.4358537 43.9271115,18.9805295 44.7672204,25.256917 C50.8989509,25.7322871 57.1611076,22.1357174 60.9783746,17.5197653" id="path190"></path>
            </g>
        </g>
    </g>
</svg>