<?xml version="1.0" encoding="UTF-8"?>
<svg width="56px" height="65px" viewBox="0 0 56 65" version="1.1" xmlns="http://www.w3.org/2000/svg" xmlns:xlink="http://www.w3.org/1999/xlink">
    <!-- Generator: Sketch 43.2 (39069) - http://www.bohemiancoding.com/sketch -->
    <title>community</title>
    <desc>Created with Sketch.</desc>
    <defs></defs>
    <g id="Roadmaps" stroke="none" stroke-width="1" fill="none" fill-rule="evenodd">
        <g id="Heart" transform="translate(-1138.000000, -529.000000)"></g>
        <g id="A4" transform="translate(-93.000000, -224.000000)">
            <g id="Group-6" transform="translate(89.200000, 224.139384)">
                <polygon id="Polygon" fill="#FFE200" points="32 0 59.7128129 16.012966 59.7128129 48.0388979 32 64.0518639 4.28718708 48.0388979 4.28718708 16.012966"></polygon>
                <polygon id="Polygon-Copy-2" stroke="#1F1F1F" stroke-width="0.800000012" fill="#FFFFFF" points="32.4075472 8.00648298 53.6 20.0162075 53.6 44.8363047 32.4075472 56.8460292 10.4 44.8363047 10.4 20.0162075"></polygon>
                <path d="M25.9555556,31.6486404 L25.9555556,26.6024975 C25.9555556,26.0512088 25.5177895,25.6207455 24.9777778,25.6207455 C24.4340012,25.6207455 24,26.0602909 24,26.6024975 L24,32.0264345 C23.8707974,32.1920726 23.7927066,32.4002803 23.7927066,32.6264182 C23.7927066,33.1701948 24.2263379,33.6041959 24.7612491,33.6041959 L24.7643072,33.6041959 C24.8330192,33.6192926 24.904456,33.6272285 24.9777778,33.6272285 C25.0509122,33.6272285 25.122061,33.6192778 25.1904353,33.6041959 L40.8387509,33.6041959 C41.3619865,33.6041959 41.8072934,33.1664299 41.8072934,32.6264182 C41.8072934,32.0826415 41.3736621,31.6486404 40.8387509,31.6486404 L25.9555556,31.6486404 Z" id="Combined-Shape" fill="#1F1F1F" transform="translate(32.800000, 29.623987) rotate(-45.000000) translate(-32.800000, -29.623987) "></path>
                <ellipse id="Oval" fill="#1F1F1F" cx="32.4" cy="8.40680713" rx="2" ry="2.00162075"></ellipse>
                <ellipse id="Oval-Copy" fill="#1F1F1F" cx="53.2" cy="20.4165316" rx="2" ry="2.00162075"></ellipse>
                <ellipse id="Oval-Copy-2" fill="#1F1F1F" cx="53.2" cy="44.4359806" rx="2" ry="2.00162075"></ellipse>
                <ellipse id="Oval-Copy-3" fill="#1F1F1F" cx="32.4" cy="56.445705" rx="2" ry="2.00162075"></ellipse>
                <ellipse id="Oval-Copy-4" fill="#1F1F1F" cx="10.8" cy="44.4359806" rx="2" ry="2.00162075"></ellipse>
                <ellipse id="Oval-Copy-5" fill="#1F1F1F" cx="10.8" cy="21.2171799" rx="2" ry="2.00162075"></ellipse>
            </g>
        </g>
    </g>
</svg>