<?xml version="1.0" encoding="UTF-8"?>
<svg width="243px" height="99px" viewBox="0 0 243 99" version="1.1" xmlns="http://www.w3.org/2000/svg" xmlns:xlink="http://www.w3.org/1999/xlink">
    <!-- Generator: Sketch 46.2 (44496) - http://www.bohemiancoding.com/sketch -->
    <title>Google</title>
    <desc>Created with Sketch.</desc>
    <defs></defs>
    <g id="Page-1" stroke="none" stroke-width="1" fill="none" fill-rule="evenodd">
        <g id="Team-with-Grey-Icons" transform="translate(-1810.000000, -9261.000000)" fill-rule="nonzero" fill="#313131">
            <g id="Google" transform="translate(1810.000000, 9271.000000)">
                <path d="M59.6825909,28.1090956 L31.3564996,28.1090956 L31.3564996,36.5145843 L51.4457417,36.5145843 C50.4532957,48.3013681 40.6469813,53.3279918 31.3905191,53.3279918 C19.5478461,53.3279918 9.21369483,44.0100516 9.21369483,30.9499666 C9.21369483,18.2274036 19.0647692,8.42930242 31.4165197,8.42930242 C40.9461098,8.42930242 46.5615139,14.5042126 46.5615139,14.5042126 L52.4468869,8.40961971 C52.4468869,8.40961971 44.8928575,0 31.1156901,0 C13.5720784,-0.000242996409 0,14.8065002 0,30.7997948 C0,46.4713622 12.7667883,61.7526773 31.5628035,61.7526773 C48.0940922,61.7526773 60.1950704,50.4280727 60.1950704,33.6817322 C60.1950704,30.1488074 59.6821292,28.1069086 59.6821292,28.1069086 L59.6825909,28.1090956 Z" id="path2998"></path>
                <path d="M82.9526781,22 C71.3296739,22 63,31.0868507 63,41.6846531 C63,52.4391881 71.0793876,61.6949213 83.0892421,61.6949213 C93.9613874,61.6949213 102.868421,53.3851731 102.868421,41.9157427 C102.868421,28.7701229 92.5075399,22 82.9526781,22 Z M83.0682545,29.7960538 C88.784016,29.7960538 94.200406,34.4171165 94.200406,41.8632554 C94.200406,49.1514467 88.8071007,53.9042135 83.0420109,53.9042135 C76.7075805,53.9042135 71.7103594,48.8309345 71.7103594,41.8054223 C71.7103594,34.9305679 76.6456164,29.7960538 83.0682545,29.7960538 Z" id="path3000"></path>
                <path d="M125.952678,22 C114.329674,22 106,31.0868507 106,41.6846531 C106,52.4391881 114.079388,61.6949213 126.089242,61.6949213 C136.961387,61.6949213 145.868421,53.3851731 145.868421,41.9157427 C145.868421,28.7701229 135.50754,22 125.952678,22 L125.952678,22 Z M126.068252,29.7960538 C131.784014,29.7960538 137.200404,34.4171165 137.200404,41.8632554 C137.200404,49.1514467 131.807098,53.9042135 126.042008,53.9042135 C119.707578,53.9042135 114.710357,48.8309345 114.710357,41.8054223 C114.710357,34.9305679 119.645614,29.7960538 126.068252,29.7960538 L126.068252,29.7960538 Z" id="path3005"></path>
                <path d="M169.05432,22 C158.385806,22 150,31.3439409 150,41.8316659 C150,53.7780983 159.722043,61.7002673 168.870372,61.7002673 C174.527086,61.7002673 177.534895,59.4548589 179.755639,56.8775175 L179.755639,60.7912177 C179.755639,67.6388565 175.597971,71.7394209 169.322345,71.7394209 C163.259828,71.7394209 160.218971,67.2315945 159.16218,64.6735713 L151.534279,67.8624132 C154.240287,73.5842496 159.687781,79.5512694 169.385524,79.5512694 C179.992804,79.5512694 188.077294,72.8700832 188.077294,58.8579383 L188.077294,23.1933554 L179.755882,23.1933554 L179.755882,26.5554537 C177.19713,23.7981734 173.697982,22.000486 169.05432,22.000486 L169.05432,22 Z M169.826563,29.780259 C175.057061,29.780259 180.42801,34.246533 180.42801,41.8737043 C180.42801,49.6262617 175.068482,53.8988676 169.710897,53.8988676 C164.023323,53.8988676 158.731104,49.2807208 158.731104,41.9473322 C158.731104,34.3274508 164.22744,29.780259 169.82632,29.780259 L169.826563,29.780259 Z" id="path3007"></path>
                <path d="M224.513167,22 C214.449714,22 206,30.0067317 206,41.8212171 C206,54.3226533 215.418298,61.7369597 225.479807,61.7369597 C233.877277,61.7369597 239.031231,57.1428696 242.107079,53.0267534 L235.246076,48.4615799 C233.46569,51.2246921 230.489178,53.9251112 225.521845,53.9251112 C219.942162,53.9251112 217.376606,50.8696743 215.787166,47.9099781 L242.400133,36.8672493 L241.01848,33.6310231 C238.447578,27.2936768 232.450426,22.001215 224.514164,22.001215 L224.513167,22 Z M224.859875,29.6332462 C228.48611,29.6332462 231.095891,31.5612283 232.204198,33.8728045 L214.431684,41.3012047 C213.665468,35.5502087 219.113982,29.6332462 224.859875,29.6332462 Z" id="path3011"></path>
                <polygon id="path3015" points="194 60.5013854 202.741796 60.5013854 202.741796 2 194 2"></polygon>
            </g>
        </g>
    </g>
</svg>