<?xml version="1.0" encoding="UTF-8"?>
<svg width="56px" height="64px" viewBox="0 0 56 64" version="1.1" xmlns="http://www.w3.org/2000/svg" xmlns:xlink="http://www.w3.org/1999/xlink">
    <!-- Generator: Sketch 43.2 (39069) - http://www.bohemiancoding.com/sketch -->
    <title>judiciary</title>
    <desc>Created with Sketch.</desc>
    <defs>
        <polygon id="path-1" points="25.7999992 0 47.4506343 12.5 47.4506343 37.5 25.7999992 50 4.14936412 37.5 4.14936412 12.5"></polygon>
    </defs>
    <g id="Roadmaps" stroke="none" stroke-width="1" fill="none" fill-rule="evenodd">
        <g id="Heart" transform="translate(-1749.000000, -666.000000)"></g>
        <g id="A4" transform="translate(-704.000000, -361.000000)">
            <g id="Group-8" transform="translate(706.000000, 368.000000)">
                <g id="Group-7" transform="translate(0.799999, 0.000000)"></g>
                <mask id="mask-2" fill="white">
                    <use xlink:href="#path-1"></use>
                </mask>
                <g id="Polygon-Copy-8">
                    <use fill="#FFFFFF" fill-rule="evenodd" xlink:href="#path-1"></use>
                    <path stroke="#FFE200" stroke-width="6" d="M27.2999992,-2.59807621 L25.7999992,-3.46410162 L24.2999992,-2.59807621 L2.64936412,9.90192379 L1.14936412,10.7679492 L1.14936412,12.5 L1.14936412,37.5 L1.14936412,39.2320508 L2.64936412,40.0980762 L24.2999992,52.5980762 L25.7999992,53.4641016 L27.2999992,52.5980762 L48.9506343,40.0980762 L50.4506343,39.2320508 L50.4506343,37.5 L50.4506343,12.5 L50.4506343,10.7679492 L48.9506343,9.90192379 L27.2999992,-2.59807621 Z"></path>
                    <use stroke="#000000" stroke-width="1" xlink:href="#path-1"></use>
                </g>
                <rect id="Rectangle-5" stroke="#000000" fill="#FFFFFF" mask="url(#mask-2)" x="13.7999992" y="19" width="3" height="18"></rect>
                <rect id="Rectangle-5-Copy" stroke="#000000" fill="#FFFFFF" mask="url(#mask-2)" x="4.79999921" y="19" width="3" height="18"></rect>
                <rect id="Rectangle-5-Copy-4" stroke="#000000" fill="#FFFFFF" mask="url(#mask-2)" transform="translate(25.799999, 16.000000) scale(1, -1) translate(-25.799999, -16.000000) " x="4.79999921" y="13" width="42" height="6"></rect>
                <rect id="Rectangle-5-Copy-2" stroke="#000000" fill="#FFFFFF" mask="url(#mask-2)" x="34.7999992" y="19" width="3" height="18"></rect>
                <rect id="Rectangle-5-Copy-3" stroke="#000000" fill="#FFFFFF" mask="url(#mask-2)" x="43.7999992" y="19" width="3" height="18"></rect>
            </g>
            <path d="M711,405 L752,405" id="Line" stroke="#000000" stroke-linecap="square"></path>
            <path d="M714,407.5 L748.5,408" id="Line-Copy-9" stroke="#000000" stroke-linecap="square"></path>
            <path d="M720,411 L743.5,411" id="Line-Copy-10" stroke="#000000" stroke-linecap="square"></path>
            <path d="M725.5,414 L738,414" id="Line-Copy-11" stroke="#000000" stroke-linecap="square"></path>
        </g>
    </g>
</svg>