<?xml version="1.0" encoding="UTF-8"?>
<svg width="611px" height="68px" viewBox="0 0 611 68" version="1.1" xmlns="http://www.w3.org/2000/svg" xmlns:xlink="http://www.w3.org/1999/xlink">
    <!-- Generator: Sketch 46.2 (44496) - http://www.bohemiancoding.com/sketch -->
    <title>McKinsey</title>
    <desc>Created with Sketch.</desc>
    <defs></defs>
    <g id="Page-1" stroke="none" stroke-width="1" fill="none" fill-rule="evenodd">
        <g id="Team-with-Grey-Icons" transform="translate(-1989.000000, -9465.000000)" fill-rule="nonzero" fill="#313131">
            <g id="McKinsey" transform="translate(1989.000000, 9465.000000)">
                <path d="M359.513889,0 C345.061107,0 335.416662,11.2638896 335.416662,26.7361118 C335.416662,41.5333332 344.23332,50.8333314 358.26388,50.8333332 C367.397213,50.8333332 374.530547,46.3277794 377.152769,42.0138896 L375.83332,40.4861118 C372.958333,44.3777776 366.761107,47.222222 360.416662,47.222222 C349.080556,47.222222 342.291667,37.7361136 342.291667,23.6111109 C342.291667,9.99999982 348.897213,2.36111076 359.722209,2.36111076 C368.086102,2.36111076 372.913889,6.63055609 375.277764,14.9999998 L376.736111,14.9999998 L376.249996,0.5555552 L374.861107,0.5555552 C374.352769,1.56944498 373.488876,2.01388942 372.222227,2.01388942 C369.344449,2.01388942 366.702778,0 359.513889,0 Z M2.08333333,1.18055609 L2.08333333,2.63888853 C4.61944444,3.14999964 8.30833333,3.79166364 8.05555644,9.37500071 L6.52777867,39.0277776 C6.18888978,45.3666665 4.39444356,47.6888869 0,48.1944443 L0,49.6527785 L15.5555564,49.6527785 L15.5555564,48.1944443 C10.8222213,47.3499998 9.46944622,45.6999998 9.72222311,39.4444443 L11.111112,9.65277849 L26.6666676,49.3055554 L28.611112,49.3055554 L43.8194444,9.65277849 L45.2777787,41.3888887 C45.5333324,46.2972229 44.1916667,47.7722203 40.5555564,48.1944443 L40.5555564,49.6527785 L58.0555564,49.6527785 L58.0555564,48.1944443 C53.7416649,47.772222 52.0611138,45.7583358 51.8055564,39.9305563 L50.3472222,9.58333316 C50.1805556,5.18611164 52.030552,3.31944498 55.8333342,2.98611164 L55.8333342,1.45833387 L43.7500009,1.45833387 L29.4444453,38.7499998 L14.861112,1.18055609 L2.08333333,1.18055609 Z M88.6805556,1.18055609 L88.6805556,2.63888853 C93.9249982,3.06111076 94.2361129,4.15278009 94.2361111,16.6666665 L94.2361111,33.4027785 C94.2361111,46.9333332 93.6749947,47.7722203 88.6805556,48.1944443 L88.6805556,49.6527785 L106.041667,49.6527785 L106.041667,48.1944443 C100.541667,47.4388887 100.555553,47.0388923 100.555556,32.4999998 L100.555556,29.7916674 L102.847224,27.222222 C108.597222,34.3250007 114.777779,42.1277776 121.458335,49.6527785 L132.986111,49.6527785 L148.958335,49.6527785 L148.958335,48.1944443 C144.222223,47.8611109 144.097229,47.9472194 144.097222,37.2916674 L144.097222,19.4444443 L132.777779,19.4444443 L132.777779,20.9027785 C137.677779,21.0750007 138.263896,21.3333349 138.263889,29.7916674 L138.263889,37.222222 C138.263889,47.8511447 138.154835,47.950798 132.986111,48.1944443 C130.280556,47.9416674 127.57223,47.1833332 119.027779,37.2916674 C115.733334,33.3999998 110.294444,26.8527803 107.083334,22.708334 L117.430556,11.1805563 C122.502778,5.59722276 125.261112,2.81111076 130.000001,2.63888853 L130.000001,1.18055609 L113.750001,1.18055609 L113.750001,2.63888853 C115.863891,3.06111076 116.666662,3.82777742 116.666668,5.34722276 C116.666668,6.36388942 116.46111,8.14722471 113.333334,11.5277776 L100.555556,25.6250007 L100.555556,16.5277776 C100.555556,4.10277831 101.133332,3.31388942 106.041667,2.63888853 L106.041667,1.18055609 L88.6805556,1.18055609 Z M140.90278,3.12500053 C138.70278,3.12500053 137.083341,4.81944142 137.083334,7.01388942 C137.083334,9.2138896 138.702785,10.9027785 140.90278,10.9027785 C143.102778,10.9027785 144.79167,9.21388782 144.791668,7.01388942 C144.791668,4.81944498 143.102785,3.12500053 140.90278,3.12500053 Z M300.416662,3.68055609 C295.855524,3.68055609 291.111116,6.52777742 291.111116,12.7777776 C291.111116,15.1499998 291.85556,17.3194452 293.125,19.8611109 C286.866671,21.8055554 283.541658,27.2333332 283.541658,33.4027785 C283.541658,44.6499998 292.097213,50.7638896 301.736111,50.7638896 C307.738867,50.7638878 312.474991,48.8611109 316.874991,45.1388887 C319.577747,47.0888869 322.280556,48.9750007 323.888893,49.6527785 L334.305551,49.6527785 L334.305551,48.1944443 C330.919436,47.8583305 325.822227,45.0861118 320.416662,41.1111109 C322.358333,37.8999998 322.827773,33.2555554 323.333338,29.7916674 C323.761089,26.8333332 325.930547,26.9055554 327.361107,26.7361118 L327.361107,25.4166665 L313.680556,25.4166665 L313.680556,26.7361118 C316.89444,27.158334 320.000004,27.5777776 320.000004,32.5694452 C320.000022,35.1916692 319.588893,37.8055554 318.402778,39.5833332 C306.397213,30.1972229 295.347222,17.2027785 295.347222,10.6944443 C295.347204,7.47777742 297.288876,5.97222187 300.416662,5.97222187 C304.308307,5.97222187 308.016662,8.53333316 309.791667,13.6111109 L311.111116,13.6111109 L310.972218,4.51388942 L309.583329,4.51388942 C309.502778,5.1055552 308.944431,5.48611164 308.611098,5.48611164 C306.919436,5.48611164 304.566671,3.68055609 300.416662,3.68055609 Z M201.874991,18.8194452 C195.619436,18.8194452 192.013889,22.7138896 192.013889,27.3611109 C192.013889,37.5111109 209.374991,35.4638932 209.374991,43.7499998 C209.374991,46.5388887 206.752769,48.194446 202.361107,48.1944443 C198.047222,48.1944443 194.374991,45.8999998 193.19444,40.4861118 L191.388876,40.4861118 C191.388876,42.6888887 191.730547,46.749998 192.152769,47.4305563 C193.338884,49.3750007 198.177764,50.4166665 202.152769,50.4166665 C209.338884,50.4166665 213.749996,46.2388887 213.749996,41.2499998 C213.749996,30.0861118 196.527773,31.8444443 196.527773,24.6527785 C196.527773,22.1166665 198.808324,20.8333367 201.597213,20.8333332 C207.261107,20.8333332 209.772218,26.0694452 210.277764,27.8472229 L211.597213,27.8472229 C211.597213,23.4499998 211.105551,20.6833332 210.76388,20.3472229 C210.425,20.008334 206.102778,18.8194452 201.874991,18.8194452 Z M233.680556,18.8194452 C224.883329,18.8194452 218.958333,25.8277776 218.958333,35.5555554 C218.958333,43.1611109 222.849996,50.4861118 233.333338,50.4861118 C237.641658,50.4861154 242.822209,48.7472229 245.69444,45.6250007 L245.000004,44.1666665 C242.211116,45.8583305 239.144431,46.6666665 236.180556,46.6666665 C227.808324,46.6666629 224.330547,39.1416674 224.583329,32.2916674 L245.69444,32.2916674 C246.033338,25.358334 242.386102,18.8194452 233.680556,18.8194452 Z M396.944431,18.8194452 C387.469444,18.8194452 380.76388,25.7027785 380.76388,34.5833332 C380.76388,40.5027803 383.122209,45.4194452 387.430547,48.1250007 C389.9722,49.7277776 393.25556,50.4166665 396.805551,50.4166665 C406.191667,50.4166665 412.916662,43.6305563 412.916662,34.5833332 C412.916644,28.7500034 410.56388,23.8833332 406.249996,21.1805563 C403.713889,19.5722238 400.49444,18.8194452 396.944431,18.8194452 Z M75.6944453,19.0277776 C66.6444436,19.0277776 59.8611067,27.1472229 59.861112,36.1111109 C59.861112,43.2138896 63.8361058,50.4861118 74.2361111,50.4861118 C78.5444436,50.4861118 83.7250053,48.749998 86.5972222,45.6250007 L85.9027778,44.1666665 C83.1138889,45.8555554 80.0416631,46.6666665 77.0833342,46.6666665 C68.7111102,46.6666665 65.5555618,39.5944443 65.5555564,32.1527785 C65.5555564,28.6888887 66.3916631,26.1777776 67.9166676,24.6527785 C69.3499991,23.2138896 71.3777769,22.708334 73.4027778,22.708334 C76.361112,22.708334 79.7694444,23.8666665 82.2222231,27.0833332 L82.7777787,27.0138896 C83.7083333,25.8333332 84.6333307,23.4472229 84.7222231,21.6666665 C82.6083316,19.9777776 79.4138853,19.0277812 75.6944453,19.0277776 Z M173.680556,19.0277776 C169.788876,19.0277776 165.697231,20.8805563 162.569446,24.8611109 L162.569446,19.4444443 L151.250001,19.4444443 L151.250001,20.9027785 C156.152778,21.072222 156.736109,21.3333332 156.736113,29.7916674 L156.736113,37.222222 C156.736113,47.958334 156.713882,47.9416638 151.38889,48.1944443 L151.38889,49.6527785 L167.500004,49.6527785 L167.500004,48.1944443 C162.758333,47.8611109 162.569446,47.9444443 162.569446,37.2916674 L162.569446,29.0972229 C162.569446,26.3027785 166.405551,22.8472247 170.972218,22.8472229 C174.688876,22.8472229 177.638884,24.4638896 177.638884,31.7361118 L177.638884,37.7777776 C177.638884,47.8444443 177.299987,47.9416638 172.986102,48.1944443 L172.986102,49.6527785 L188.819436,49.6527785 L188.819436,48.1944443 C183.49444,47.9416674 183.472218,47.8444425 183.472218,37.7777776 L183.472218,31.0416674 C183.472218,21.908334 178.499987,19.0277758 173.680556,19.0277776 Z M437.638884,19.0277776 C433.49444,19.0277776 429.449996,21.6444443 427.083329,24.8611109 L427.083329,19.4444443 L415.76388,19.4444443 L415.76388,20.9027785 C420.674991,21.072222 421.249996,21.3333332 421.249996,29.7916674 L421.249996,38.4027785 C421.249996,48.1305563 421.111116,48.1138878 416.041658,48.1944443 L416.041658,49.6527785 L432.013889,49.6527785 L432.013889,48.1944443 C427.53332,47.772222 427.083329,47.7638878 427.083329,38.1250007 L427.083329,29.3750007 C427.083329,26.2472229 431.052769,22.8472247 435.277764,22.8472229 C439.844449,22.8472229 441.805551,25.3888869 441.805551,31.3888887 L441.805551,37.4999998 C441.805551,47.4805563 441.586102,47.9416638 437.361107,48.1944443 L437.361107,49.6527785 L452.361107,49.6527785 L452.361107,48.1944443 C447.372218,47.772222 447.499987,47.3333314 447.499987,37.7777776 L447.499987,29.3055554 C447.499987,26.2611109 451.352769,22.8472247 455.83332,22.8472229 C459.641658,22.8472229 462.083329,25.1333314 462.083329,31.3888887 L462.083329,38.3333332 C462.083329,47.4666665 462.036111,47.8611092 457.638884,48.1944443 L457.638884,49.6527785 L473.541658,49.6527785 L473.541658,48.1944443 C468.047222,47.9416674 468.26388,47.1972247 468.26388,38.4027785 L468.26388,30.5555554 C468.26388,22.1805563 463.730547,19.0277758 458.402778,19.0277776 C453.588893,19.0277776 449.66388,21.7388869 446.874991,25.6250007 C445.688876,21.4833332 442.713853,19.0277758 437.638884,19.0277776 Z M495.486102,19.0277776 C491.088893,19.0277776 487.519436,21.0833332 485.069444,23.958334 L485.069444,19.4444443 L474.027773,19.4444443 L474.027773,20.9027785 C478.677747,21.072222 479.236111,21.3555554 479.236111,31.2499998 L479.236111,51.8750007 C479.236111,62.61667 479.477764,63.4277776 474.236111,63.6805563 L474.236111,65.1388887 L490.416662,65.1388887 L490.416662,63.6805563 C484.669444,63.5166718 485.069444,62.5666665 485.069444,51.3194452 L485.069444,47.222222 C487.352769,49.5055554 490.95556,50.4166665 494.166653,50.4166665 C503.297213,50.4166683 509.027773,43.5777776 509.027773,34.4444443 C509.027756,25.6527803 503.344449,19.0277776 495.486102,19.0277776 Z M525.000004,19.0277776 C521.699969,19.0277776 516.858333,20.2166665 514.236111,22.4999998 C514.405551,23.93611 515.683329,26.7250007 516.527773,27.5694452 L517.291667,27.4305563 C518.641658,24.1333349 520.949996,21.7361118 524.583329,21.7361118 C528.561107,21.7361118 530.208324,24.5499998 530.208324,27.8472229 L530.208324,31.3194452 C530.208324,33.6027785 520.113889,34.0305563 515.972218,37.4999998 C514.533338,38.7666665 513.472218,40.372222 513.472218,42.5694452 C513.472218,47.3055572 516.822209,50.4166665 521.805551,50.4166665 C524.93332,50.4166683 527.627773,49.3805563 530.416662,46.2499998 C530.838884,48.4472194 532.666671,49.6527785 535.625,49.6527785 L542.777782,49.6527785 L558.402778,49.6527785 L558.402778,48.1944443 C553.666671,47.8611109 553.4722,47.9444443 553.472218,37.2916674 L553.472218,29.0972229 C553.472218,26.3027785 557.313907,22.8472247 561.874991,22.8472229 C565.597213,22.8472229 568.541658,24.4638896 568.541658,31.7361118 L568.541658,37.7777776 C568.541658,47.8444443 568.197213,47.9416638 563.888893,48.1944443 L563.888893,49.6527785 L579.722209,49.6527785 L579.722209,48.1944443 C574.391667,47.9416674 574.374991,47.8444425 574.374991,37.7777776 L574.374991,31.0416674 C574.374991,21.908334 569.40836,19.0277758 564.583329,19.0277776 C560.697213,19.0277776 556.599969,20.8805563 553.472218,24.8611109 L553.472218,19.4444443 L542.152769,19.4444443 L542.152769,20.9027785 C547.055542,21.072222 547.638867,21.3333332 547.638884,29.7916674 L547.638884,37.222222 C547.638884,47.958334 547.54724,47.9416638 542.222227,48.1944443 L540.972218,48.1944443 C536.744467,48.1944425 536.249996,46.7666665 536.249996,40.7638896 L536.249996,30.6250007 C536.249996,28.6833349 536.041658,26.922222 535.625,25.4861118 C534.186102,20.7499998 530.325,19.0277776 525.000004,19.0277776 Z M247.152769,19.8611109 L247.152769,21.3194452 C250.616662,21.4888887 250.905551,21.9777758 255.55556,32.2916674 L263.472218,49.7916674 C260.766671,56.7250007 256.530547,60.48611 247.986102,62.4305563 C248.413889,63.8694452 249.99444,66.3888905 250.83332,67.1527785 C262.083329,62.5861118 264.291667,55.1361136 268.26388,43.8888887 L274.236111,26.8055554 C275.586102,22.9138896 277.752769,21.3194416 279.861107,21.3194452 L279.861107,19.8611109 L268.958333,19.8611109 L268.958333,21.3194452 C271.583329,21.4888887 272.961107,22.9444425 271.944431,25.9027785 L266.111116,43.0555554 L260.486102,29.7916674 C258.969444,26.158334 258.402778,24.7388923 258.402778,23.472222 C258.402778,22.2861118 259.055542,21.5777758 261.249996,21.3194452 L261.249996,19.8611109 L247.152769,19.8611109 Z M577.569444,19.8611109 L577.569444,21.3194452 C581.03332,21.4888887 581.391684,21.9777758 586.041658,32.2916674 L593.888893,49.7916674 C591.180556,56.7250007 586.944431,60.48611 578.402778,62.4305563 C578.827773,63.8694452 580.408307,66.3888905 581.249996,67.1527785 C592.499987,62.5861118 594.708324,55.1361136 598.680556,43.8888887 L604.722209,26.8055554 C606.072218,22.9138896 608.166653,21.3194416 610.277764,21.3194452 L610.277764,19.8611109 L599.374991,19.8611109 L599.374991,21.3194452 C602.000004,21.4888887 603.44724,22.9444425 602.430547,25.9027785 L596.597213,43.0555554 L590.902778,29.7916674 C589.380556,26.158334 588.819453,24.7388923 588.819436,23.472222 C588.819436,22.2861118 589.472218,21.5777758 591.666671,21.3194452 L591.666671,19.8611109 L577.569444,19.8611109 Z M232.499987,21.3194452 C237.230547,21.3194452 240.125,24.4194452 240.208324,29.9999998 L224.652769,29.9999998 C225.158333,24.4194452 227.680556,21.3194452 232.499987,21.3194452 Z M396.111116,21.3194452 C401.522209,21.3194452 406.874991,26.5555554 406.874991,36.5277776 C406.875009,43.5472247 403.774991,47.8472229 397.430547,47.8472229 C391.936111,47.8472229 386.805551,42.8027785 386.805551,32.5694452 C386.805551,25.2972229 390.269444,21.3194452 396.111116,21.3194452 Z M294.236111,22.0833332 C298.466653,29.608334 306.36388,37.5944443 314.652769,43.6805563 C312.111116,45.6277776 307.838884,46.1805563 304.374991,46.1805563 C295.49444,46.1805563 288.472218,39.9027785 288.472218,31.5277776 C288.472218,26.2861083 290.766671,23.0138896 294.236111,22.0833332 Z M492.777782,22.8472229 C499.027773,22.8472247 502.916662,27.5138896 502.916662,35.208334 C502.916662,43.0722238 499.641658,48.1250007 493.472218,48.1250007 C489.497196,48.1250043 485.069444,45.8750007 485.069444,42.9166665 L485.069444,27.9166665 C485.069444,25.3805563 488.719436,22.8472229 492.777782,22.8472229 Z M530.208324,34.1666665 L530.208324,42.4999998 C530.208324,45.0361118 526.872218,47.0833332 524.166653,47.0833332 C521.630547,47.0833349 519.513889,45.4833332 519.513889,42.0138896 C519.513889,35.844446 525.900004,36.5333332 530.208324,34.1666665 Z" id="path157"></path>
            </g>
        </g>
    </g>
</svg>