<?xml version="1.0" encoding="UTF-8"?>
<svg width="375px" height="99px" viewBox="0 0 375 99" version="1.1" xmlns="http://www.w3.org/2000/svg" xmlns:xlink="http://www.w3.org/1999/xlink">
    <!-- Generator: Sketch 46.2 (44496) - http://www.bohemiancoding.com/sketch -->
    <title>Microsoft</title>
    <desc>Created with Sketch.</desc>
    <defs></defs>
    <g id="Page-1" stroke="none" stroke-width="1" fill="none" fill-rule="evenodd">
        <g id="Team-with-Grey-Icons" transform="translate(-721.000000, -9445.000000)" fill-rule="nonzero" fill="#313131">
            <g id="Microsoft" transform="translate(721.000000, 9455.000000)">
                <path d="M132.27907,46.0697674 L130.046512,52.3953488 L129.860465,52.3953488 C129.488372,50.9689922 128.806202,48.7984496 127.689922,46.1937984 L115.72093,16.1162791 L104,16.1162791 L104,64.0542636 L111.751938,64.0542636 L111.751938,34.4728682 C111.751938,32.6124031 111.751938,30.503876 111.689922,27.8992248 C111.627907,26.5968992 111.503876,25.6046512 111.44186,24.8604651 L111.627907,24.8604651 C112,26.7209302 112.434109,28.0852713 112.744186,28.9534884 L127.131783,63.9302326 L132.589147,63.9302326 L146.852713,28.6434109 C147.162791,27.8372093 147.472868,26.2248062 147.782946,24.8604651 L147.968992,24.8604651 C147.782946,28.3953488 147.658915,31.5581395 147.596899,33.4806202 L147.596899,63.8682171 L155.844961,63.8682171 L155.844961,15.9922481 L144.55814,15.9922481 L132.27907,46.0697674 L132.27907,46.0697674 Z M163.658915,29.5116279 L171.72093,29.5116279 L171.72093,63.8682171 L163.658915,63.8682171 L163.658915,29.5116279 Z M167.751938,15 C166.387597,15 165.271318,15.496124 164.341085,16.3643411 C163.410853,17.2325581 162.914729,18.3488372 162.914729,19.7131783 C162.914729,21.0155039 163.410853,22.1317829 164.341085,23 C165.271318,23.8682171 166.387597,24.3023256 167.751938,24.3023256 C169.116279,24.3023256 170.294574,23.8062016 171.162791,23 C172.093023,22.1317829 172.589147,21.0155039 172.589147,19.7131783 C172.589147,18.4108527 172.093023,17.2945736 171.162791,16.3643411 C170.356589,15.496124 169.178295,15 167.751938,15 L167.751938,15 Z M200.310078,29.2015504 C198.821705,28.8914729 197.271318,28.7054264 195.782946,28.7054264 C192.124031,28.7054264 188.775194,29.5116279 185.984496,31.124031 C183.193798,32.7364341 180.96124,34.9689922 179.534884,37.7596899 C178.046512,40.6124031 177.302326,43.8992248 177.302326,47.6821705 C177.302326,50.9689922 178.046512,53.8837209 179.472868,56.5503876 C180.899225,59.1550388 182.883721,61.2635659 185.550388,62.6899225 C188.093023,64.1162791 191.069767,64.8604651 194.418605,64.8604651 C198.263566,64.8604651 201.550388,64.0542636 204.155039,62.5658915 L204.217054,62.503876 L204.217054,55.0620155 L203.906977,55.3100775 C202.728682,56.1782946 201.364341,56.9224806 200,57.3565891 C198.573643,57.8527132 197.271318,58.1007752 196.155039,58.1007752 C192.930233,58.1007752 190.387597,57.1705426 188.589147,55.124031 C186.728682,53.1395349 185.79845,50.4108527 185.79845,47 C185.79845,43.4651163 186.728682,40.6744186 188.651163,38.627907 C190.573643,36.5813953 193.116279,35.5271318 196.217054,35.5271318 C198.821705,35.5271318 201.488372,36.3953488 203.906977,38.1317829 L204.217054,38.379845 L204.217054,30.503876 L204.155039,30.4418605 C203.100775,30.0077519 201.922481,29.5116279 200.310078,29.2015504 L200.310078,29.2015504 Z M226.914729,28.9534884 C224.930233,28.9534884 223.069767,29.5736434 221.457364,30.875969 C220.093023,31.9922481 219.162791,33.6046512 218.356589,35.5271318 L218.294574,35.5271318 L218.294574,29.5116279 L210.232558,29.5116279 L210.232558,63.8682171 L218.294574,63.8682171 L218.294574,46.3178295 C218.294574,43.3410853 218.914729,40.8604651 220.27907,39.0620155 C221.643411,37.2015504 223.379845,36.2713178 225.488372,36.2713178 C226.232558,36.2713178 226.976744,36.4573643 227.906977,36.5813953 C228.775194,36.8294574 229.395349,37.0775194 229.829457,37.3875969 L230.139535,37.6356589 L230.139535,29.5736434 L229.953488,29.5116279 C229.395349,29.1395349 228.27907,28.9534884 226.914729,28.9534884 L226.914729,28.9534884 Z M248.868217,28.7674419 C243.224806,28.7674419 238.697674,30.4418605 235.534884,33.7286822 C232.310078,37.0155039 230.75969,41.5426357 230.75969,47.248062 C230.75969,52.5813953 232.372093,56.9224806 235.472868,60.0852713 C238.573643,63.1860465 242.790698,64.7984496 248.062016,64.7984496 C253.581395,64.7984496 257.984496,63.124031 261.147287,59.7751938 C264.372093,56.4263566 265.922481,51.9612403 265.922481,46.4418605 C265.922481,40.9844961 264.434109,36.6434109 261.395349,33.4806202 C258.48062,30.3178295 254.20155,28.7674419 248.868217,28.7674419 L248.868217,28.7674419 Z M255.317829,55.1860465 C253.829457,57.1085271 251.472868,58.0387597 248.55814,58.0387597 C245.643411,58.0387597 243.286822,57.1085271 241.612403,55.0620155 C239.937984,53.1395349 239.131783,50.3488372 239.131783,46.8139535 C239.131783,43.1550388 240,40.3643411 241.612403,38.379845 C243.286822,36.3953488 245.581395,35.4031008 248.496124,35.4031008 C251.348837,35.4031008 253.581395,36.3333333 255.193798,38.255814 C256.806202,40.1782946 257.674419,42.9689922 257.674419,46.627907 C257.550388,50.3488372 256.868217,53.2635659 255.317829,55.1860465 L255.317829,55.1860465 Z M283.906977,43.7751938 C281.364341,42.7209302 279.751938,41.9147287 279.007752,41.2325581 C278.387597,40.6124031 278.077519,39.744186 278.077519,38.627907 C278.077519,37.6976744 278.449612,36.7674419 279.379845,36.1472868 C280.310078,35.5271318 281.364341,35.2170543 282.914729,35.2170543 C284.27907,35.2170543 285.705426,35.4651163 287.069767,35.8372093 C288.434109,36.2093023 289.674419,36.7674419 290.666667,37.5116279 L290.976744,37.7596899 L290.976744,30.1937984 L290.790698,30.1317829 C289.860465,29.7596899 288.620155,29.3875969 287.131783,29.0775194 C285.643411,28.8294574 284.27907,28.7054264 283.162791,28.7054264 C279.317829,28.7054264 276.155039,29.6356589 273.674419,31.6821705 C271.193798,33.6046512 270.015504,36.2093023 270.015504,39.248062 C270.015504,40.8604651 270.263566,42.2868217 270.821705,43.4651163 C271.379845,44.6434109 272.186047,45.7596899 273.302326,46.6899225 C274.418605,47.5581395 276.031008,48.5503876 278.263566,49.4806202 C280.124031,50.2868217 281.550388,50.9069767 282.418605,51.4031008 C283.286822,51.8992248 283.844961,52.4573643 284.27907,52.8914729 C284.589147,53.3875969 284.775194,54.0077519 284.775194,54.8139535 C284.775194,57.1085271 283.03876,58.2248062 279.503876,58.2248062 C278.139535,58.2248062 276.713178,57.9767442 275.03876,57.4186047 C273.364341,56.8604651 271.813953,56.0542636 270.511628,55.124031 L270.20155,54.875969 L270.20155,62.751938 L270.387597,62.8139535 C271.565891,63.372093 272.992248,63.744186 274.728682,64.1782946 C276.465116,64.4883721 278.015504,64.7364341 279.379845,64.7364341 C283.534884,64.7364341 286.945736,63.8062016 289.364341,61.7596899 C291.844961,59.7751938 293.147287,57.2325581 293.147287,53.9457364 C293.147287,51.6511628 292.527132,49.6046512 291.162791,48.0542636 C289.364341,46.5658915 287.131783,45.0155039 283.906977,43.7751938 L283.906977,43.7751938 Z M314.418605,28.7674419 C308.775194,28.7674419 304.248062,30.4418605 301.085271,33.7286822 C297.922481,37.0155039 296.310078,41.5426357 296.310078,47.248062 C296.310078,52.5813953 297.922481,56.9224806 301.023256,60.0852713 C304.124031,63.1860465 308.341085,64.7984496 313.612403,64.7984496 C319.131783,64.7984496 323.534884,63.124031 326.697674,59.7751938 C329.922481,56.4263566 331.472868,51.9612403 331.472868,46.4418605 C331.472868,40.9844961 329.984496,36.6434109 326.945736,33.4806202 C324.031008,30.3178295 319.751938,28.7674419 314.418605,28.7674419 L314.418605,28.7674419 Z M320.806202,55.1860465 C319.317829,57.1085271 316.96124,58.0387597 314.046512,58.0387597 C311.069767,58.0387597 308.775194,57.1085271 307.100775,55.0620155 C305.426357,53.1395349 304.620155,50.3488372 304.620155,46.8139535 C304.620155,43.1550388 305.488372,40.3643411 307.100775,38.379845 C308.775194,36.3953488 311.069767,35.4031008 313.984496,35.4031008 C316.775194,35.4031008 319.069767,36.3333333 320.682171,38.255814 C322.294574,40.1782946 323.162791,42.9689922 323.162791,46.627907 C323.162791,50.3488372 322.356589,53.2635659 320.806202,55.1860465 L320.806202,55.1860465 Z" id="Shape"></path>
                <path d="M374.170543,36.6899225 L374.170543,30.0542636 L366.046512,30.0542636 L366.046512,19.8837209 L365.79845,19.9457364 L358.108527,22.2403101 L357.922481,22.3023256 L357.922481,30.0542636 L345.767442,30.0542636 L345.767442,25.7131783 C345.767442,23.7286822 346.263566,22.1782946 347.131783,21.1860465 C348,20.1937984 349.302326,19.6976744 350.914729,19.6976744 C352.031008,19.6976744 353.209302,19.9457364 354.511628,20.503876 L354.821705,20.6899225 L354.821705,13.6821705 L354.635659,13.620155 C353.51938,13.248062 352.031008,13 350.108527,13 C347.689922,13 345.581395,13.5581395 343.658915,14.4883721 C341.736434,15.5426357 340.310078,16.9689922 339.255814,18.8914729 C338.20155,20.751938 337.643411,22.8604651 337.643411,25.2790698 L337.643411,30.0542636 L332,30.0542636 L332,36.627907 L337.643411,36.627907 L337.643411,64.4108527 L345.767442,64.4108527 L345.767442,36.6899225 L357.922481,36.6899225 L357.922481,54.3643411 C357.922481,61.620155 361.333333,65.2790698 368.155039,65.2790698 C369.271318,65.2790698 370.449612,65.0930233 371.565891,64.9069767 C372.744186,64.6589147 373.612403,64.3488372 374.108527,64.1007752 L374.170543,64.0387597 L374.170543,57.4031008 L373.860465,57.6511628 C373.364341,57.9612403 372.930233,58.2093023 372.186047,58.3953488 C371.565891,58.5813953 371.007752,58.6434109 370.573643,58.6434109 C368.96124,58.6434109 367.844961,58.2713178 367.03876,57.3410853 C366.294574,56.4728682 365.922481,55.0465116 365.922481,52.9379845 L365.922481,36.6899225 L374.170543,36.6899225 L374.170543,36.6899225 Z" id="Shape"></path>
                <polygon id="Shape" points="0 0 38.0155039 0 38.0155039 38.0155039 0 38.0155039"></polygon>
                <polygon id="Shape" points="42 0 80.0155039 0 80.0155039 38.0155039 42 38.0155039"></polygon>
                <polygon id="Shape" points="0 42 38.0155039 42 38.0155039 80.0155039 0 80.0155039"></polygon>
                <polygon id="Shape" points="42 42 80.0155039 42 80.0155039 80.0155039 42 80.0155039"></polygon>
            </g>
        </g>
    </g>
</svg>