<?xml version="1.0" encoding="UTF-8"?>
<svg width="311px" height="73px" viewBox="0 0 311 73" version="1.1" xmlns="http://www.w3.org/2000/svg" xmlns:xlink="http://www.w3.org/1999/xlink">
    <!-- Generator: Sketch 46.2 (44496) - http://www.bohemiancoding.com/sketch -->
    <title>MIT</title>
    <desc>Created with Sketch.</desc>
    <defs></defs>
    <g id="Page-1" stroke="none" stroke-width="1" fill="none" fill-rule="evenodd">
        <g id="Team-with-Grey-Icons" transform="translate(-723.000000, -9272.000000)" fill-rule="nonzero" fill="#313131">
            <g id="MIT" transform="translate(723.000000, 9272.000000)">
                <g id="g13656" transform="translate(158.000000, 0.000000)">
                    <path d="M17.5957298,-4.1736935e-15 L17.5957298,15.7445792 L13.9223624,15.7445792 L14.1614573,4.52712404 L14.2049291,2.94480764 L14.0745137,3.50233523 C13.8788906,4.39331741 13.8571547,4.50376098 13.6832675,5.17385604 L10.7923926,15.7445792 L7.48853558,15.7445792 L4.70530515,5.61987811 L4.0314922,2.80993906 C4.09669991,4.05880086 4.09669991,4.32535215 4.16190761,5.82165 L4.35753073,15.7445792 L0.641726615,15.7445792 L0.641726615,-6.06010864e-15 L6.24855416,-6.06010864e-15 L8.59706656,8.83123704 L9.13942905,11.3512617 C9.35678807,10.2585077 9.37852397,10.1470022 9.55241118,9.41106573 L12.0085681,-4.1736935e-15 L17.5957298,-4.1736935e-15" id="path13658"></path>
                </g>
                <path d="M178.479225,7.61277879 C178.543398,6.80993906 178.652077,5.85205356 179.673664,5.02585077 C180.716988,4.17840883 182.065649,4 183.390504,4 C184.782636,4 188.150666,4.33557851 188.150666,7.34516554 L188.150666,14.125763 C188.150666,15.3735628 188.215874,15.5519717 188.47774,15.9533915 L185.194583,15.9533915 L185.194583,14.8829386 C184.347918,15.5296706 183.390504,16.265607 181.717874,16.265607 C179.107496,16.265607 178,14.3477121 178,12.7197315 C178,10.8464388 179.456305,9.77598584 180.391984,9.37562793 C181.303857,8.97314611 183.455711,8.57172624 184.86958,8.304113 L184.86958,7.6796821 C184.825073,7.14445561 184.782636,6.25241147 183.586127,6.25241147 C182.108085,6.25241147 181.912462,7.18905782 181.824484,7.61277879 L178.479225,7.61277879 Z M182.716691,11.1140521 C182.152592,11.3381251 181.282121,11.6715796 181.282121,12.5636238 C181.282121,13.1211514 181.760311,13.7455823 182.542803,13.7455823 C182.956821,13.7455823 183.347032,13.5905365 183.694806,13.3664635 C184.803337,12.6528282 184.846809,11.5823752 184.86958,10.3781156 L182.716691,11.1140521 L182.716691,11.1140521 Z" id="path13664"></path>
                <path d="M192.108382,12.0953006 C193.020255,13.0096459 194.152592,13.7009801 195.412239,13.7009801 C196.216468,13.7009801 197.433678,13.4333668 197.433678,12.5636238 C197.433678,12.1622039 197.194583,12.0060962 196.99896,11.8945907 C196.499035,11.6269774 195.717577,11.5600741 195.064465,11.4485686 C194.564539,11.3593642 194.043913,11.2478587 193.541917,11.091751 C192.846368,10.8899791 192.150819,10.6021886 191.651929,10.0871393 C191.153038,9.57527591 190.805263,8.77243618 190.805263,7.90375509 C190.805263,5.98479822 192.41165,4 195.586127,4 C198.260678,4 199.868099,5.18195849 200.650592,5.74054804 L198.585681,7.7019832 C197.520622,6.85454126 196.52077,6.54338777 195.737243,6.54338777 C194.434124,6.54338777 194.130856,7.0775523 194.130856,7.41206885 C194.130856,8.08216392 194.848141,8.21490859 195.933901,8.41561852 C198.216171,8.83933949 200.867951,9.46377039 200.867951,12.2301692 C200.867951,14.972143 198.173734,16.3102092 195.499183,16.3102092 C192.347477,16.3102092 190.71832,14.7491319 190,14.0577977 L192.108382,12.0953006" id="path13670"></path>
                <path d="M203.108382,12.0953006 C204.02129,13.0096459 205.151557,13.7009801 206.412239,13.7009801 C207.217503,13.7009801 208.433678,13.4333668 208.433678,12.5636238 C208.433678,12.1622039 208.194583,12.0060962 207.99896,11.8945907 C207.498,11.6269774 206.715507,11.5600741 206.064465,11.4485686 C205.564539,11.3593642 205.042878,11.2478587 204.542952,11.091751 C203.847403,10.8899791 203.151854,10.6021886 202.651929,10.0871393 C202.152003,9.57527591 201.804228,8.77243618 201.804228,7.90375509 C201.804228,5.98479822 203.412685,4 206.586127,4 C209.259643,4 210.868099,5.18195849 211.650592,5.74054804 L209.586716,7.7019832 C208.520622,6.85454126 207.52077,6.54338777 206.738278,6.54338777 C205.434124,6.54338777 205.129821,7.0775523 205.129821,7.41206885 C205.129821,8.08216392 205.847106,8.21490859 206.933901,8.41561852 C209.216171,8.83933949 211.867951,9.46377039 211.867951,12.2301692 C211.867951,14.972143 209.172699,16.3102092 206.499183,16.3102092 C203.347477,16.3102092 201.717285,14.7491319 201,14.0577977 L203.108382,12.0953006" id="path13676"></path>
                <path d="M213.47819,7.61277879 C213.543398,6.80993906 213.652077,5.85205356 214.673664,5.02585077 C215.716988,4.17840883 217.065649,4 218.390504,4 C219.782636,4 223.150666,4.33557851 223.150666,7.34516554 L223.150666,14.125763 C223.150666,15.3735628 223.215874,15.5519717 223.475669,15.9533915 L220.194583,15.9533915 L220.194583,14.8829386 C219.347918,15.5296706 218.390504,16.265607 216.716839,16.265607 C214.107496,16.265607 213,14.3477121 213,12.7197315 C213,10.8464388 214.45527,9.77598584 215.390949,9.37562793 C216.303857,8.97314611 218.455711,8.57172624 219.86958,8.304113 L219.86958,7.6796821 C219.825073,7.14445561 219.782636,6.25241147 218.585092,6.25241147 C217.108085,6.25241147 216.912462,7.18905782 216.824484,7.61277879 L213.47819,7.61277879 Z M217.716691,11.1140521 C217.152592,11.3381251 216.282121,11.6715796 216.282121,12.5636238 C216.282121,13.1211514 216.760311,13.7455823 217.542803,13.7455823 C217.95475,13.7455823 218.347032,13.5905365 218.694806,13.3664635 C219.803337,12.6528282 219.846809,11.5823752 219.86958,10.3781156 L217.716691,11.1140521 L217.716691,11.1140521 Z" id="path13682"></path>
                <path d="M236.671293,13.2103558 C236.259346,13.8793889 235.801857,14.6153253 234.889984,15.2843584 C234.021583,15.9087893 232.910982,16.3325103 231.629598,16.3325103 C229.456008,16.3325103 226,14.9944441 226,10.244309 C226,6.85454126 227.911724,4 231.694806,4 C232.954453,4 235.107343,4.3557557 236.541912,6.78763795 L234.064019,8.23720969 C233.868396,7.81348872 233.651037,7.4110069 233.10764,7.01064899 C232.781601,6.78763795 232.368619,6.60922912 231.846957,6.60922912 C230.042878,6.60922912 229.434272,8.72889593 229.434272,10.1328035 C229.434272,11.6715796 230.173293,13.6107137 231.955637,13.6107137 C232.129524,13.6107137 232.954453,13.6107137 233.651037,12.807874 C233.934639,12.4744194 234.041249,12.2068061 234.150963,11.8733515 L236.671293,13.2103558" id="path13688"></path>
                <path d="M240.346294,0 L240.346294,5.35120291 C240.824484,4.86164059 241.803634,3.81242676 243.606679,3.81242676 C244.433678,3.81242676 245.345551,4.0577389 246.020399,4.6375676 C247.020251,5.50731064 247.193103,6.60006472 247.193103,8.11653976 L247.193103,15.7658183 L243.86751,15.7658183 L243.86751,9.67761702 C243.86751,8.74097066 243.845774,8.29494859 243.715359,7.89352873 C243.390355,6.84537686 242.499183,6.73387134 242.151409,6.73387134 C241.564539,6.73387134 241.063579,7.02484764 240.782047,7.40290445 C240.346294,8.00503424 240.346294,8.9639817 240.346294,9.96753136 L240.346294,15.7658183 L237,15.7658183 L237,0 L240.346294,0" id="path13694"></path>
                <path d="M256.86751,4 L260.215874,4 L260.215874,15.6411761 L256.86751,15.6411761 L256.86751,14.5271829 C256.541471,14.9052397 256.344813,15.1282507 255.737243,15.4415281 C255.06343,15.7983458 254.325444,15.9767546 253.585389,15.9767546 C252.847403,15.9767546 251.477006,15.8641871 250.694514,14.7491319 C250.10868,13.902752 250,13.2092938 250,11.314762 L250,4 L253.36803,4 L253.36803,11.2244956 C253.36803,11.7395449 253.36803,12.2514083 253.627825,12.608226 C253.824484,12.8758392 254.280938,13.1891167 254.95475,13.1891167 C255.150374,13.1891167 255.607863,13.1891167 256.106753,12.8981403 C256.824038,12.4521183 256.846809,11.8722896 256.86751,11.2478587 L256.86751,4" id="path13700"></path>
                <path d="M264.109417,12.0953006 C265.022325,13.0096459 266.152592,13.7009801 267.41431,13.7009801 C268.216468,13.7009801 269.433678,13.4333668 269.433678,12.5636238 C269.433678,12.1622039 269.195618,12.0060962 268.999995,11.8945907 C268.50007,11.6269774 267.717577,11.5600741 267.0655,11.4485686 C266.565574,11.3593642 266.043913,11.2478587 265.543987,11.091751 C264.848438,10.8899791 264.152889,10.6021886 263.652964,10.0871393 C263.153038,9.57527591 262.805263,8.77243618 262.805263,7.90375509 C262.805263,5.98479822 264.414755,4 267.587162,4 C270.260678,4 271.870169,5.18195849 272.652662,5.74054804 L270.586716,7.7019832 C269.520622,6.85454126 268.521805,6.54338777 267.739313,6.54338777 C266.436194,6.54338777 266.130856,7.0775523 266.130856,7.41206885 C266.130856,8.08216392 266.848141,8.21490859 267.935971,8.41561852 C270.217206,8.83933949 272.867951,9.46377039 272.867951,12.2301692 C272.867951,14.972143 270.173734,16.3102092 267.500218,16.3102092 C264.348512,16.3102092 262.71832,14.7491319 262,14.0577977 L264.109417,12.0953006" id="path13706"></path>
                <path d="M285.389612,13.0531861 C284.997331,13.6574398 284.606085,14.2362066 284.019216,14.7937342 C283.040065,15.7314425 281.562024,16.4450778 279.737243,16.4450778 C276.368178,16.4450778 274,14.2362066 274,10.4227178 C274,7.61277879 275.346591,4 279.824187,4 C280.498,4 282.454231,4.06690331 283.910536,5.67258277 C285.389612,7.29950138 285.476556,9.57527591 285.518993,10.8899791 L277.412537,10.8899791 C277.389766,12.3406128 278.193994,13.7901845 279.998074,13.7901845 C281.822854,13.7901845 282.454231,12.5636238 282.867213,11.738483 L285.389612,13.0531861 Z M282.064019,8.75013507 C281.997777,8.25951079 281.910833,7.61277879 281.432643,7.0998534 C281.019661,6.67613244 280.38932,6.45418336 279.802451,6.45418336 C278.998222,6.45418336 278.433089,6.85454126 278.10705,7.21135892 C277.650596,7.72428431 277.541917,8.25951079 277.432202,8.75013507 L282.064019,8.75013507 L282.064019,8.75013507 Z" id="path13712"></path>
                <path d="M287.650893,1 L290.976486,1 L290.976486,4.63507989 L293.172847,4.63507989 L293.172847,6.73138363 L290.955786,6.73138363 L290.955786,11.9732049 C290.93405,12.6857783 290.93405,13.2879081 291.825222,13.2879081 L293.020696,13.2433059 L293.020696,15.9183764 C292.302376,16.0309438 291.867658,16.0978472 291.260088,16.0978472 C290.10705,16.0978472 288.846368,16.0309438 288.130118,14.9604909 C287.673664,14.2702186 287.650893,13.4440158 287.650893,12.3289606 L287.650893,6.71014449 L286,6.71014449 L286,4.61277879 L287.650893,4.61277879 L287.650893,1" id="path13718"></path>
                <path d="M294.652964,1 L297.978556,1 L297.978556,4.63507989 L300.172847,4.63507989 L300.172847,6.73138363 L297.955786,6.73138363 L297.955786,11.9732049 C297.935085,12.6857783 297.935085,13.2879081 298.826257,13.2879081 L300.020696,13.2433059 L300.020696,15.9183764 C299.303411,16.0309438 298.868693,16.0978472 298.260088,16.0978472 C297.108085,16.0978472 295.847403,16.0309438 295.131153,14.9604909 C294.673664,14.2702186 294.652964,13.4440158 294.652964,12.3289606 L294.652964,6.71014449 L293,6.71014449 L293,4.61277879 L294.652964,4.61277879 L294.652964,1" id="path13724"></path>
                <path d="M302.109417,12.0953006 C303.02129,13.0096459 304.151557,13.7009801 305.412239,13.7009801 C306.216468,13.7009801 307.433678,13.4333668 307.433678,12.5636238 C307.433678,12.1622039 307.194583,12.0060962 306.999995,11.8945907 C306.499035,11.6269774 305.716542,11.5600741 305.0655,11.4485686 C304.564539,11.3593642 304.042878,11.2478587 303.542952,11.091751 C302.847403,10.8899791 302.152889,10.6021886 301.652964,10.0871393 C301.152003,9.57527591 300.805263,8.77243618 300.805263,7.90375509 C300.805263,5.98479822 302.412685,4 305.587162,4 C308.259643,4 309.869134,5.18195849 310.650592,5.74054804 L308.584646,7.7019832 C307.520622,6.85454126 306.52077,6.54338777 305.738278,6.54338777 C304.435159,6.54338777 304.130856,7.0775523 304.130856,7.41206885 C304.130856,8.08216392 304.847106,8.21490859 305.934936,8.41561852 C308.217206,8.83933949 310.867951,9.46377039 310.867951,12.2301692 C310.867951,14.972143 308.172699,16.3102092 305.500218,16.3102092 C302.348512,16.3102092 300.717285,14.7491319 300,14.0577977 L302.109417,12.0953006" id="path13730"></path>
                <polygon id="path13734" points="162.825519 42.7456411 159 42.7456411 159 27 162.825519 27"></polygon>
                <path d="M168.369065,31.3380662 C168.695103,30.9812486 168.912462,30.7136353 169.499332,30.423721 C170.020993,30.2007099 170.760014,30 171.564242,30 C172.238055,30 172.998812,30.1338066 173.585681,30.4683232 C174.781156,31.1150552 175.085458,32.1632071 175.085458,33.9685345 L175.085458,41.9321524 L171.7609,41.9321524 L171.7609,35.374566 C171.7609,34.3253521 171.738129,33.9472953 171.608749,33.6350799 C171.346883,33.010649 170.760014,32.7430357 170.107937,32.7430357 C168.347329,32.7430357 168.347329,34.1926075 168.347329,35.6432412 L168.347329,41.9321524 L165,41.9321524 L165,30.3122155 L168.369065,30.3122155 L168.369065,31.3380662" id="path13740"></path>
                <path d="M179.108382,38.0942387 C180.022325,39.0096459 181.152592,39.7009801 182.413275,39.7009801 C183.217503,39.7009801 184.434713,39.4333668 184.434713,38.5636238 C184.434713,38.1622039 184.194583,38.0050342 183.999995,37.8956526 C183.499035,37.6269774 182.717577,37.5600741 182.066535,37.4485686 C181.564539,37.3593642 181.042878,37.2478587 180.543987,37.0928129 C179.848438,36.891041 179.152889,36.6011267 178.652964,36.0882013 C178.152003,35.5752759 177.805263,34.7724362 177.805263,33.9026931 C177.805263,31.9847982 179.41372,30 182.587162,30 C185.260678,30 186.869134,31.1819585 187.651627,31.7394861 L185.586716,33.7019832 C184.521657,32.8556032 183.521805,32.5423258 182.739313,32.5423258 C181.435159,32.5423258 181.129821,33.0775523 181.129821,33.4120689 C181.129821,34.081102 181.848141,34.2149086 182.935971,34.4145566 C185.217206,34.8393395 187.867951,35.4637704 187.867951,38.2291072 C187.867951,40.972143 185.173734,42.3102092 182.500218,42.3102092 C179.349547,42.3102092 177.71832,40.7491319 177,40.0588597 L179.108382,38.0942387" id="path13746"></path>
                <path d="M190.651929,27 L193.977521,27 L193.977521,30.6350799 L196.172847,30.6350799 L196.172847,32.7313836 L193.955786,32.7313836 L193.955786,37.9732049 C193.935085,38.6868403 193.935085,39.2879081 194.824187,39.2879081 L196.020696,39.2443678 L196.020696,41.9205003 C195.303411,42.0320058 194.868693,42.0989091 194.260088,42.0989091 C193.108085,42.0989091 191.847403,42.0320058 191.130118,40.9604909 C190.673664,40.2691567 190.651929,39.4440158 190.651929,38.3300226 L190.651929,32.7090825 L189,32.7090825 L189,30.6127788 L190.651929,30.6127788 L190.651929,27" id="path13752"></path>
                <path d="M198,27 L201.304892,27 L201.304892,29.6538313 L198,29.6538313 L198,27 Z M198,31.1023411 L201.304892,31.1023411 L201.304892,42.7679422 L198,42.7679422 L198,31.1023411 Z" id="path13756"></path>
                <path d="M204.652964,27 L207.978556,27 L207.978556,30.6350799 L210.173883,30.6350799 L210.173883,32.7313836 L207.956821,32.7313836 L207.956821,37.9732049 C207.93405,38.6868403 207.93405,39.2879081 208.825222,39.2879081 L210.021731,39.2443678 L210.021731,41.9205003 C209.304446,42.0320058 208.868693,42.0989091 208.260088,42.0989091 C207.108085,42.0989091 205.847403,42.0320058 205.130118,40.9604909 C204.673664,40.2691567 204.652964,39.4440158 204.652964,38.3300226 L204.652964,32.7090825 L203,32.7090825 L203,30.6127788 L204.652964,30.6127788 L204.652964,27" id="path13762"></path>
                <path d="M217.868545,31 L221.215874,31 L221.215874,42.6422381 L217.868545,42.6422381 L217.868545,41.5261209 C217.543541,41.9052397 217.346883,42.1271888 216.738278,42.4404662 C216.064465,42.7972838 215.325444,42.9756926 214.587459,42.9756926 C213.847403,42.9756926 212.479076,42.8641871 211.695549,41.7501939 C211.10868,40.90169 211,40.2103558 211,38.314762 L211,31 L214.369065,31 L214.369065,38.2255576 C214.369065,38.738483 214.369065,39.2524703 214.629896,39.608226 C214.826554,39.8769012 215.283008,40.1880547 215.955786,40.1880547 C216.151409,40.1880547 216.608898,40.1880547 217.108823,39.8981403 C217.826108,39.4521183 217.847844,38.8722896 217.868545,38.2478587 L217.868545,31" id="path13768"></path>
                <path d="M224.650893,27 L227.976486,27 L227.976486,30.6350799 L230.171812,30.6350799 L230.171812,32.7313836 L227.95475,32.7313836 L227.95475,37.9732049 C227.933015,38.6868403 227.933015,39.2879081 228.824187,39.2879081 L230.020696,39.2443678 L230.020696,41.9205003 C229.302376,42.0320058 228.867658,42.0989091 228.259053,42.0989091 C227.10705,42.0989091 225.846368,42.0320058 225.129083,40.9604909 C224.673664,40.2691567 224.650893,39.4440158 224.650893,38.3300226 L224.650893,32.7090825 L223,32.7090825 L223,30.6127788 L224.650893,30.6127788 L224.650893,27" id="path13774"></path>
                <path d="M243.388577,39.05531 C242.997331,39.6563779 242.606085,40.2362066 242.01818,40.7926722 C241.040065,41.7303805 239.562024,42.4440158 237.737243,42.4440158 C234.368178,42.4440158 232,40.2362066 232,36.4227178 C232,33.6127788 233.345556,30 237.824187,30 C238.498,30 240.454231,30.0679653 241.910536,31.6725828 C243.388577,33.3005633 243.476556,35.5752759 243.518993,36.891041 L235.411501,36.891041 C235.389766,38.3416747 236.193994,39.7901845 237.998074,39.7901845 C239.822854,39.7901845 240.454231,38.5636238 240.867213,37.738483 L243.388577,39.05531 Z M240.062984,34.7501351 C239.997777,34.2595108 239.909798,33.6127788 239.432643,33.0998534 C239.018626,32.6761324 238.388285,32.4531214 237.801416,32.4531214 C236.998222,32.4531214 236.433089,32.8556032 236.10705,33.2124209 C235.650596,33.7242843 235.540882,34.2595108 235.432202,34.7501351 L240.062984,34.7501351 L240.062984,34.7501351 Z" id="path13780"></path>
                <path d="M262.193841,36.1709836 C262.193841,39.1136673 260.542947,42.3473274 256.108823,42.3473274 C252.913646,42.3473274 250,40.4740346 250,36.1709836 C250,32.6017451 252.195326,29.7695049 256.543541,30.014817 C261.172253,30.2824303 262.193841,34.0502548 262.193841,36.1709836 M253.935233,33.872908 C253.522251,34.5419411 253.369065,35.3447808 253.369065,36.1476205 C253.369065,37.9975502 254.239536,39.6255308 256.108823,39.6255308 C257.911868,39.6255308 258.80304,38.1324188 258.80304,36.3047902 C258.80304,35.0113262 258.499773,34.0067146 257.869431,33.3833457 C257.173883,32.7132506 256.39139,32.6909495 255.912165,32.7355517 C254.955786,32.802455 254.391687,33.1359096 253.935233,33.872908" id="path13786"></path>
                <path d="M264.80408,29.1678187 C264.80408,28.58799 264.847552,27.8074514 265.28227,27.1830204 C265.696287,26.6042537 266.630931,26 268.195915,26 C268.868693,26 269.543541,26.1125675 270.194583,26.2017719 L270.194583,28.7674608 L269.390355,28.7674608 C268.129673,28.7674608 268.064465,29.0340121 268.086201,30.5950893 L270.324999,30.5950893 L270.324999,32.691393 L268.108972,32.691393 L268.108972,41.9697141 L264.782344,41.9697141 L264.782344,32.691393 L263,32.691393 L263,30.5950893 L264.80408,30.5950893 L264.80408,29.1678187" id="path13792"></path>
                <polygon id="path13798" points="155 53 166.825365 53 166.825365 56.1232165 162.84666 56.1232165 162.84666 68.7668803 159.000441 68.7668803 159.000441 56.1232165 155 56.1232165"></polygon>
                <path d="M177.390647,66.0542481 C176.998366,66.6563779 176.60712,67.2362066 176.020251,67.7937342 C175.0411,68.7303805 173.563059,69.4440158 171.738278,69.4440158 C168.369213,69.4440158 166,67.2362066 166,63.4216559 C166,60.6127788 167.347626,57 171.825222,57 C172.499035,57 174.455266,57.0669033 175.911571,58.6725828 C177.390647,60.3005633 177.477591,62.5752759 177.520028,63.891041 L169.412537,63.891041 C169.390801,65.3406128 170.195029,66.7901845 171.999109,66.7901845 C173.823889,66.7901845 174.455266,65.5636238 174.868248,64.7395449 L177.390647,66.0542481 Z M174.065054,61.7501351 C173.998812,61.2584488 173.911868,60.6127788 173.433678,60.0998534 C173.020696,59.6761324 172.390355,59.4531214 171.803486,59.4531214 C170.999257,59.4531214 170.434124,59.8545413 170.108085,60.2113589 C169.651631,60.7242843 169.542952,61.2584488 169.434272,61.7501351 L174.065054,61.7501351 L174.065054,61.7501351 Z" id="path13804"></path>
                <path d="M188.672328,66.2103558 C188.259346,66.8793889 187.802892,67.6153253 186.888949,68.2843584 C186.019513,68.9098513 184.912017,69.3325103 183.628563,69.3325103 C181.454973,69.3325103 178,67.9944441 178,63.245371 C178,59.8534793 179.912759,57 183.694806,57 C184.954453,57 187.107343,57.3568177 188.540877,59.787638 L186.064019,61.2372097 C185.868396,60.8145507 185.650002,60.4120689 185.106605,60.010649 C184.781601,59.787638 184.368619,59.6092291 183.846957,59.6092291 C182.042878,59.6092291 181.434272,61.7288959 181.434272,63.1328035 C181.434272,64.6726416 182.173293,66.6117757 183.955637,66.6117757 C184.129524,66.6117757 184.954453,66.6117757 185.650002,65.8089359 C185.932569,65.4744194 186.042284,65.2068061 186.150963,64.8722896 L188.672328,66.2103558" id="path13810"></path>
                <path d="M193.346294,53 L193.346294,58.3522649 C193.824484,57.8616406 194.803634,56.8134887 196.606679,56.8134887 C197.432643,56.8134887 198.345551,57.0588009 199.020399,57.6386296 C200.019216,58.5083726 200.193103,59.6011267 200.193103,61.1176017 L200.193103,68.7668803 L196.86751,68.7668803 L196.86751,62.678679 C196.86751,61.7420326 196.845774,61.2960105 196.716394,60.8956526 C196.388285,59.8464388 195.499183,59.7349333 195.150374,59.7349333 C194.563504,59.7349333 194.063579,60.0248476 193.781012,60.4039664 C193.346294,61.0050342 193.346294,61.9650437 193.346294,62.9696553 L193.346294,68.7668803 L190,68.7668803 L190,53 L193.346294,53" id="path13816"></path>
                <path d="M206.369065,58.3380662 C206.696138,57.9812486 206.912462,57.7136353 207.500367,57.423721 C208.022028,57.2007099 208.760014,57 209.564242,57 C210.23702,57 210.999847,57.1327447 211.585681,57.4693851 C212.781156,58.1150552 213.085458,59.1632071 213.085458,60.9706584 L213.085458,68.9310904 L209.759865,68.9310904 L209.759865,62.374566 C209.759865,61.3264141 209.738129,60.9472953 209.608749,60.6350799 C209.346883,60.010649 208.760014,59.7419738 208.108972,59.7419738 C206.348364,59.7419738 206.348364,61.1926075 206.348364,62.6421792 L206.348364,68.9310904 L203,68.9310904 L203,57.3122155 L206.369065,57.3122155 L206.369065,58.3380662" id="path13822"></path>
                <path d="M227.193841,63.1689838 C227.193841,66.1116675 225.541912,69.3463895 221.107788,69.3463895 C217.911576,69.3463895 215,67.4730968 215,63.1689838 C215,59.6008072 217.194291,56.7685671 221.542506,57.0149412 C226.172253,57.2814925 227.193841,61.0514409 227.193841,63.1689838 M218.934198,60.8730321 C218.520181,61.5410032 218.369065,62.343843 218.369065,63.1466827 C218.369065,64.9976743 219.238501,66.6267168 221.107788,66.6267168 C222.911868,66.6267168 223.80304,65.1314809 223.80304,63.3038524 C223.80304,62.0093264 223.498737,61.0057768 222.868396,60.3813459 C222.172847,59.7133747 221.39139,59.6900116 220.912165,59.7335519 C219.955786,59.8025791 219.389617,60.1360337 218.934198,60.8730321" id="path13828"></path>
                <polygon id="path13832" points="232.346294 68.7435172 229 68.7435172 229 53 232.346294 53"></polygon>
                <path d="M247.193841,63.1689838 C247.193841,66.1116675 245.541912,69.3463895 241.106753,69.3463895 C237.912611,69.3463895 235,67.4730968 235,63.1689838 C235,59.6008072 237.195326,56.7685671 241.542506,57.0149412 C246.172253,57.2814925 247.193841,61.0514409 247.193841,63.1689838 M238.934198,60.8730321 C238.521216,61.5410032 238.369065,62.343843 238.369065,63.1466827 C238.369065,64.9976743 239.238501,66.6267168 241.106753,66.6267168 C242.911868,66.6267168 243.80304,65.1314809 243.80304,63.3038524 C243.80304,62.0093264 243.498737,61.0057768 242.867361,60.3813459 C242.171812,59.7133747 241.390355,59.6900116 240.9132,59.7335519 C239.955786,59.8025791 239.390652,60.1360337 238.934198,60.8730321" id="path13838"></path>
                <path d="M255.695544,67.3031099 C255.043467,67.7491319 254.239239,68.2843584 252.69599,68.2843584 C251.761346,68.2843584 250.847403,68.0390463 250.108382,67.5261209 C248.586869,66.5225712 248,64.7161819 248,62.7090825 C248,60.3664047 249.066094,57 252.82537,57 C254.565277,57 255.368471,57.7805386 255.869431,58.2722249 L255.869431,57.1784088 L258.998366,57.1784088 L258.998366,68.3735628 C258.954894,69.6447258 258.912458,71.1388997 257.261564,72.1212102 C256.108526,72.8348455 254.413126,73.0121924 253.391539,73.0121924 C251.131005,73.0121924 249.652964,72.2104146 249.044358,71.5626207 C248.153186,70.6482754 248.173887,69.4663169 248.173887,68.841886 L251.630931,68.841886 C251.674402,69.3558734 251.717874,70.0907478 252.609046,70.5144688 C252.82537,70.6259743 253.152444,70.7374798 253.674105,70.7374798 C255.695544,70.7374798 255.695544,69.5119811 255.695544,68.5519717 L255.695544,67.3031099 Z M251.457043,62.6867814 C251.457043,63.6690919 251.522251,65.6974304 253.587162,65.6974304 C255.281527,65.6974304 255.672773,64.3381251 255.672773,62.6867814 C255.672773,62.1292538 255.629301,60.9706584 255.260826,60.4120689 C254.999995,59.9883479 254.39139,59.5200247 253.433975,59.563565 C251.84829,59.6325922 251.457043,61.0364998 251.457043,62.6867814 L251.457043,62.6867814 Z" id="path13844"></path>
                <path d="M271.867951,57 L267.868545,69.5788844 C267.606679,70.33606 267.367584,71.0496953 266.803486,71.6964273 C266.020993,72.5672323 265.259202,72.6107725 264.390801,72.6341356 L261.978116,72.6341356 L261.978116,69.912339 L263.151854,69.912339 C263.695252,69.8900379 264.542952,69.8900379 264.542952,69.0648971 C264.542952,68.7749827 264.456008,68.4850684 264.390801,68.2408182 L261,57 L264.563653,57 L266.433975,65.3406128 L268.302228,57 L271.867951,57" id="path13850"></path>
                <path d="M92.9943305,21.9298655 L107.242508,21.9298655 L107.242508,69.251963 L92.9943305,69.251963 L92.9943305,21.9298655 Z M46.4958104,0 L60.7448907,0 L60.7448907,69.2510362 L46.4958104,69.2510362 L46.4958104,0 Z M0,0 L14.248177,0 L14.248177,69.2510362 L0,69.2510362 L0,0 Z M23.2474535,0 L37.4965338,0 L37.4965338,47.3220975 L23.2474535,47.3220975 L23.2474535,0 Z M92.8994872,0 L130.489961,0 L130.489961,13.8503926 L92.8994872,13.8503926 L92.8994872,0 Z M69.6502271,0 L83.9932475,0 L83.9932475,13.8503926 L69.6502271,13.8503926 L69.6502271,0 Z" id="path13644"></path>
                <g id="g13852" transform="translate(69.000000, 21.000000)">
                    <polygon id="path13854" points="0.39743869 0.277100528 14.6456157 0.277100528 14.6456157 47.5982713 0.39743869 47.5982713"></polygon>
                </g>
            </g>
        </g>
    </g>
</svg>