<?xml version="1.0" encoding="UTF-8"?>
<svg width="269px" height="92px" viewBox="0 0 269 92" version="1.1" xmlns="http://www.w3.org/2000/svg" xmlns:xlink="http://www.w3.org/1999/xlink">
    <!-- Generator: Sketch 46.2 (44496) - http://www.bohemiancoding.com/sketch -->
    <title>Mozilla</title>
    <desc>Created with Sketch.</desc>
    <defs></defs>
    <g id="Page-1" stroke="none" stroke-width="1" fill="none" fill-rule="evenodd">
        <g id="Team-with-Grey-Icons" transform="translate(-2265.000000, -9258.000000)" fill-rule="nonzero" fill="#313131">
            <g id="Mozilla" transform="translate(2265.000000, 9269.000000)">
                <path d="M251.600976,47.0855241 C243.150172,47.0855241 240.184794,48.6241409 240.184794,54.2127148 C240.184794,57.8477234 242.496766,60.3112543 245.597454,60.3112543 C247.869759,60.3112543 250.166409,59.1235395 251.976234,57.1224656 L252.175601,47.0855241 L251.600976,47.0855241 Z M235.759579,22.5458333 C240.304467,20.6244416 244.211598,19.8110825 248.516237,19.8110825 C256.377093,19.8110825 261.750399,22.7217354 263.591495,27.926933 C264.19768,29.8411082 264.476718,31.300043 264.421103,36.3218213 L264.125515,52.0044674 C264.125515,52.2795962 264.125515,52.5697595 264.125515,52.8328608 C264.125515,57.8477234 264.955124,59.7691151 268.528179,62.4085481 L262.037543,69.9022766 C259.182529,68.7064433 256.640206,66.601933 255.451601,64.2376289 C254.551031,65.158634 253.538316,66.0516753 252.613402,66.6972509 C250.34954,68.3402062 247.041378,69.256701 243.213918,69.256701 C232.810739,69.256701 227.158419,63.9546821 227.158419,54.6670533 C227.158419,43.7012887 234.748067,38.5862973 249.607732,38.5862973 C250.501086,38.5862973 251.346017,38.5862973 252.358732,38.6903351 L252.358732,36.7851804 C252.358732,31.5751718 251.346017,29.8411082 246.849828,29.8411082 C242.975172,29.8411082 238.374957,31.7459622 233.367912,35.1301976 L228.162113,26.3690722 C230.641581,24.8139175 232.467655,23.9094502 235.759579,22.5458333 L235.759579,22.5458333 Z M216.577835,12.1507732 L216.577835,48.5444588 C216.577835,56.5842354 216.682174,57.6649055 217.431787,58.940421 C217.86177,59.7691151 218.850129,60.2162371 219.871263,60.2162371 C220.333419,60.2162371 220.612457,60.2162371 221.258033,60.0481529 L223.33939,67.3386168 C221.258033,68.1558849 218.698582,68.6114261 216.043814,68.6114261 C210.838617,68.6114261 206.637113,66.154811 205.178179,62.2404639 C204.245447,59.8650344 204.0936,58.3982818 204.0936,51.741366 L204.0936,16.8772766 C204.0936,10.7706186 203.910782,7.03939003 203.439905,2.82615979 L215.924442,0 C216.427191,2.5516323 216.577835,5.56481959 216.577835,12.1507732 L216.577835,12.1507732 Z M191.225988,12.1507732 L191.225988,48.5444588 C191.225988,56.5842354 191.321907,57.6649055 192.055584,58.940421 C192.517741,59.7691151 193.5061,60.2162371 194.526933,60.2162371 C194.965335,60.2162371 195.228136,60.2162371 195.889948,60.0481529 L197.978823,67.3386168 C195.889948,68.1558849 193.3311,68.6114261 190.684751,68.6114261 C185.470232,68.6114261 181.276847,66.154811 179.825129,62.2404639 C178.908634,59.8650344 178.709278,58.3982818 178.709278,51.741366 L178.709278,16.8772766 C178.709278,10.7706186 178.550515,7.03939003 178.094974,2.82615979 L190.596649,0 C191.034751,2.5516323 191.225988,5.56481959 191.225988,12.1507732 L191.225988,12.1507732 Z M168.967612,19.7079467 L168.967612,67.5187285 L156.745275,67.5187285 L156.745275,21.6290378 L168.967612,19.7079467 L168.967612,19.7079467 Z M170.402191,7.9483677 C170.402191,12.1507732 167.061555,15.5064433 162.836598,15.5064433 C158.746349,15.5064433 155.38256,12.1507732 155.38256,7.9483677 C155.38256,3.75498282 158.858505,0.370747423 163.042869,0.370747423 C167.141237,0.370747423 170.402191,3.75498282 170.402191,7.9483677 L170.402191,7.9483677 Z M149.729038,20.8084622 L149.729038,29.2024485 L129.097079,59.0318299 L150.534579,59.0318299 L147.608591,67.5187285 L113.232216,67.5187285 L113.232216,59.9489261 L135.19622,29.3870704 L115.065206,29.3870704 L115.065206,20.8084622 L149.729038,20.8084622 L149.729038,20.8084622 Z M83.032689,33.667354 C82.1952749,36.1390034 81.7493557,39.4198024 81.7493557,44.0756443 C81.7493557,49.4447165 82.299012,53.4793385 83.2954897,55.8427405 C84.3957045,58.3982818 87.1466924,59.6737973 89.4977663,59.6737973 C94.7919674,59.6737973 97.0561426,54.9343643 97.0561426,43.8967354 C97.0561426,37.5976375 96.2346649,33.4842354 94.6007302,31.3800258 C93.4280498,29.8411082 91.5231959,28.9246134 89.3227663,28.9246134 C86.397079,28.9246134 84.0210481,30.7416667 83.032689,33.667354 L83.032689,33.667354 Z M105.012027,26.9232388 C108.743256,31.300043 110.409665,36.4060137 110.409665,43.9764175 C110.409665,52.0044674 108.568256,57.4887027 104.541753,62.0414089 C101.002363,66.0516753 96.3384021,68.5233247 89.1471649,68.5233247 C76.4473368,68.5233247 68.1640034,59.0318299 68.1640034,44.3507732 C68.1640034,29.6567869 76.5348368,19.8910653 89.1471649,19.8910653 C95.8040808,19.8910653 101.002363,22.1795962 105.012027,26.9232388 L105.012027,26.9232388 Z M11.0574742,19.9951031 C11.8708333,21.2507732 12.2295533,22.3708333 12.6838918,24.7339347 C15.8648625,21.6290378 19.7873282,19.9951031 24.0685137,19.9951031 C27.9350515,19.9951031 31.1082045,21.2507732 33.5636168,23.8135309 C34.2251289,24.455799 34.8631873,25.2844931 35.413445,26.0978522 C39.6862113,21.7213488 43.5130584,19.9951031 48.6394759,19.9951031 C52.290421,19.9951031 55.7507302,21.0868986 57.8636598,22.904854 C60.5024914,25.1852663 61.3393041,27.926933 61.3393041,34.3099227 L61.3393041,67.5187285 L49.4765893,67.5187285 L49.4765893,36.6892612 C49.4765893,31.1006873 48.8150773,30.0200172 45.6338058,30.0200172 C43.3536942,30.0200172 40.1489691,31.5751718 37.5179553,33.9466924 L37.5179553,67.5187285 L25.9417955,67.5187285 L25.9417955,37.1273625 C25.9417955,31.300043 25.0971649,29.9319158 21.7009021,29.9319158 C19.4445447,29.9319158 16.319201,31.1006873 13.688488,33.4842354 L13.688488,67.5187285 L1.74579038,67.5187285 L1.74579038,34.9428694 C1.74579038,28.1981529 1.28333333,25.2844931 0,22.9929553 L11.0574742,19.9951031 L11.0574742,19.9951031 Z" id="path3087"></path>
            </g>
        </g>
    </g>
</svg>