<?xml version="1.0" encoding="UTF-8"?>
<svg width="56px" height="65px" viewBox="0 0 56 65" version="1.1" xmlns="http://www.w3.org/2000/svg" xmlns:xlink="http://www.w3.org/1999/xlink">
    <!-- Generator: Sketch 43.2 (39069) - http://www.bohemiancoding.com/sketch -->
    <title>pair</title>
    <desc>Created with Sketch.</desc>
    <defs>
        <polygon id="path-1" points="32 0 59.7128129 16.012966 59.7128129 48.0388979 32 64.0518639 4.28718708 48.0388979 4.28718708 16.012966"></polygon>
    </defs>
    <g id="Roadmaps" stroke="none" stroke-width="1" fill="none" fill-rule="evenodd">
        <g id="Heart" transform="translate(-1445.000000, -666.000000)"></g>
        <g id="A4" transform="translate(-400.000000, -361.000000)">
            <g id="Group-4-Copy-2" transform="translate(396.000000, 361.850891)">
                <mask id="mask-2" fill="white">
                    <use xlink:href="#path-1"></use>
                </mask>
                <g id="Polygon-Copy">
                    <use fill="#FFFFFF" fill-rule="evenodd" xlink:href="#path-1"></use>
                    <path stroke="#FFE200" stroke-width="7.20000011" d="M32,4.15776442 L56.1128129,18.0905851 L56.1128129,45.9612788 L32,59.8940994 L7.88718713,45.9612788 L7.88718713,18.0905851 L32,4.15776442 Z"></path>
                </g>
                <path d="M33.4905294,40.3285478 L32.4131297,41.5656564 L31.3335739,40.3285478 C29.9866194,38.7850179 27.6675575,36.7277726 26.1481705,35.3432479 L25.162768,34.4453127 C23.345744,32.6104477 23.345744,29.6250218 25.162768,27.7901568 C26.9145025,26.0212691 29.7305812,25.9590603 31.5740928,27.6506544 L32.4093079,28.4172755 L33.2439053,27.6506544 C35.0880308,25.9590603 37.9041102,26.0206398 39.6558463,27.7901568 C41.472871,29.6243925 41.472871,32.6098184 39.6564601,34.4453127 L38.6710607,35.3432479 C37.1541951,36.7254762 34.8327488,38.7873622 33.4905294,40.3285478 Z" id="Clip-2" fill="#FF4A4B" mask="url(#mask-2)"></path>
                <path d="M31.9837146,41.5650841 L33.0606158,40.3285478 C34.4028352,38.7873622 36.7242816,36.7254762 38.2411471,35.3432479 L39.2265466,34.4453127 C41.0429575,32.6098184 41.0429575,29.6243925 39.2259327,27.7901568 C37.4741967,26.0206398 34.6581173,25.9590603 32.8139918,27.6506544 L31.9793943,28.4172755 L31.1441793,27.6506544 C29.757442,26.3781934 27.8203836,26.0981111 26.2,26.7903494 L31.9837146,41.5650841 Z" id="Clip-4" fill="#EB3A3B" mask="url(#mask-2)"></path>
                <path d="M31.8,41.5604805 L31.8045167,41.5656564 L32.8819164,40.3285478 C34.2241358,38.7873622 36.5455821,36.7254762 38.0624477,35.3432479 L39.0478471,34.4453127 C40.8642581,32.6098184 40.8642581,29.6243925 39.0472333,27.7901568 C37.2954973,26.0206398 34.4794178,25.9590603 32.6352923,27.6506544 L31.9192352,28.3083901 L31.8,41.5604805 Z" id="Clip-5" fill="#FF4A4B" mask="url(#mask-2)"></path>
                <path d="M31.8,41.1307448 L32.8464279,39.9291991 C34.1886473,38.3880134 36.5100937,36.3261275 38.0269592,34.9438992 L39.0123587,34.045964 C40.8287696,32.2104697 40.8287696,29.2250438 39.0117448,27.3908081 C38.5967729,26.971624 38.1220724,26.6482854 37.6147135,26.4213938 L31.8,41.1307448 Z" id="Clip-6" fill="#E3393A" mask="url(#mask-2)"></path>
            </g>
        </g>
    </g>
</svg>