<?xml version="1.0" encoding="UTF-8"?>
<svg width="104px" height="32px" viewBox="0 0 104 32" version="1.1" xmlns="http://www.w3.org/2000/svg" xmlns:xlink="http://www.w3.org/1999/xlink">
    <!-- Generator: Sketch 47.1 (45422) - http://www.bohemiancoding.com/sketch -->
    <title>Group</title>
    <desc>Created with Sketch.</desc>
    <defs>
        <linearGradient x1="50%" y1="0%" x2="50%" y2="100%" id="linearGradient-1">
            <stop stop-color="#52FF5B" offset="0%"></stop>
            <stop stop-color="#02BE6E" offset="100%"></stop>
        </linearGradient>
    </defs>
    <g id="Page-1" stroke="none" stroke-width="1" fill="none" fill-rule="evenodd">
        <g id="Desktop-Copy-2" transform="translate(-422.000000, -930.000000)">
            <g id="Group" transform="translate(422.000000, 930.000000)">
                <path d="M15.6300001,31.2600002 C6.99778941,31.2600002 0,24.2622108 0,15.6300001 C0,6.99778941 6.99778941,0 15.6300001,0 C24.2622108,0 31.2600002,6.99778941 31.2600002,15.6300001 C31.2600002,24.2622108 24.2622108,31.2600002 15.6300001,31.2600002 Z M13.7310449,10.7310449 C12.0741906,10.7310449 10.7310449,12.0741906 10.7310449,13.7310449 L10.7310449,17.5289554 C10.7310449,19.1858096 12.0741906,20.5289554 13.7310449,20.5289554 L17.5289554,20.5289554 C19.1858096,20.5289554 20.5289554,19.1858096 20.5289554,17.5289554 L20.5289554,13.7310449 C20.5289554,12.0741906 19.1858096,10.7310449 17.5289554,10.7310449 L17.5289554,10.7310449 L13.7310449,10.7310449 Z" id="Combined-Shape" fill="url(#linearGradient-1)"></path>
                <path d="M48.5892101,25.4862793 L44.1225403,25.4862793 L44.1225403,11.370754 L39.0456696,11.370754 L39.0456696,7.7435066 L53.6782848,7.7435066 L53.6782848,11.370754 L48.5892101,11.370754 L48.5892101,25.4862793 Z M59.8686267,25.8059689 C55.523997,25.8059689 52.9489497,23.1377903 52.9489497,18.6375444 C52.9489497,14.2110731 55.5972211,11.4814157 59.8686267,11.4814157 C64.1644403,11.4814157 66.7883038,14.1864816 66.7883038,18.6375444 C66.7883038,23.1500861 64.2254604,25.8059689 59.8686267,25.8059689 Z M59.8686267,22.4861154 C61.4551488,22.4861154 62.358246,21.0721037 62.358246,18.6375444 C62.358246,16.2521682 61.4307408,14.8012693 59.8686267,14.8012693 C58.3065127,14.8012693 57.3790075,16.2521682 57.3790075,18.6375444 C57.3790075,21.0843994 58.2821046,22.4861154 59.8686267,22.4861154 Z M68.5852,15.9201829 C68.5852,18.0719398 69.9154377,19.4121769 72.6125252,19.9900774 L75.1387566,20.5310905 C76.224914,20.7647098 76.6276465,21.0721037 76.6276465,21.6500041 C76.6276465,22.3877493 75.8587935,22.8672837 74.6750039,22.8672837 C73.4057863,22.8672837 72.6369333,22.4123409 72.417261,21.5639338 L68.2556916,21.5639338 C68.4997719,24.3181827 70.7209028,25.8059689 74.6139839,25.8059689 C78.4094328,25.8059689 80.8868481,23.9861973 80.8868481,21.1458782 C80.8868481,19.0678958 79.7274666,17.9489822 77.0547871,17.3833776 L74.2478634,16.8054771 C73.17391,16.5718578 72.6857493,16.2275767 72.6857493,15.6496763 C72.6857493,14.9119311 73.4668064,14.4201009 74.5895758,14.4201009 C75.7611614,14.4201009 76.4811983,14.8996353 76.6032385,15.6988593 L80.5329316,15.6988593 C80.3742794,12.9446104 78.3118007,11.4814157 74.5529638,11.4814157 C70.891759,11.4814157 68.5852,13.2028213 68.5852,15.9201829 Z M83.1352929,25.4862793 L87.4433105,25.4862793 L87.4433105,17.7276587 C87.4433105,16.1538022 88.3219997,15.0840716 89.7986856,15.0840716 C91.2265555,15.0840716 91.9954085,15.9816616 91.9954085,17.6784757 L91.9954085,25.4862793 L96.3034261,25.4862793 L96.3034261,16.6948153 C96.3034261,13.3749618 94.6070679,11.5428945 91.653696,11.5428945 C89.7010535,11.5428945 88.1877555,12.5019633 87.5897587,14.0758198 L87.3578824,14.0758198 L87.3578824,6.67377602 L83.1352929,6.67377602 L83.1352929,25.4862793 Z M98.9546034,25.4862793 L103.274825,25.4862793 L103.274825,11.8011053 L98.9546034,11.8011053 L98.9546034,25.4862793 Z M101.114714,10.2149531 C102.640216,10.2149531 103.555517,9.44032062 103.555517,8.28451977 C103.555517,7.11642316 102.640216,6.34179067 101.114714,6.34179067 C99.6014163,6.34179067 98.6861151,7.11642316 98.6861151,8.28451977 C98.6861151,9.44032062 99.6014163,10.2149531 101.114714,10.2149531 Z" id="Toshi" fill="#000000"></path>
            </g>
        </g>
    </g>
</svg>